<svg xmlns="http://www.w3.org/2000/svg" viewBox="0 0 512 512">
  <path fill="#fdd454" stroke="#fdd454" stroke-width="1.3" d="m245 5 2 2h20q1 4 9 1l1 1h5l2 2 6 1q0-3 2 0-2 3 2 1 28 11 46 32 15 14 21 37h-1l-1-6q-3 2-3-1-3 4-4-1h-3l3-1q0 2 1 1 2-4-4-3v-2h-1q1 5-2 4l1-3-1-1-2 1q-2-3-4 0-1-4 3-3 1-2 3 0h1l-4-4-1 3q-6-1-4 3l1 1q-3 1 0 3l-1-2q-2 3-3 0-4 2-3-1h-1v3l-1-3q-4-1-4 1-3-4-5 3v1l-7-4-8 7v1l-1-1q2-2 0-3v-4q-3 2-2 4-4 1-5-1l-4 5-1-1q3-2 1-3-5 4-12 4 3-5-1-4-3 1 0 3l-3 1-1-3-3 2-4-3q-2 5-9 4l2-3 2 2q2-2-1-3-5 1-7-1-2 2-4 1 2 3-1 4 3 0 1 1l-4-4-1 2v1l-3-3-5 6h-1q3-2 1-3l-2 1-2-1q-2 4-5 3v1l-3-5q-2 5-4 1l-4 1-1-1q-1 3-3 0-5 1-3-1-2-3-3 1-4 1-3-1-1-4-4 0l3 1-3 1q-2-1-1-4-3 2-1 4-3 2-4-2l-3 1q-3-1 0-3h-3q2 4-1 3l-2-1-2 1q-2-3-4 0v-3q-4 2-2-1h-2v1q-4-1-2 3-2 1-2-1l-2-2-2 3q4-1 3 3-1-3-3 0l-2-3q-4 1-3-3h-2q1 4-4 3v-1h2q-1-4-2-2-4 0-4 3 2 0 1 1-3-4-4-1l1 3h-2q10-32 34-50 17-16 45-21-3-2 0-3 0 3 5 1l1-1h9q-2-1 0-3zm90 61q-3 0-1 4 1 3 2 1zm-109 9-4 3h5q1-2-1-3zm-58 1q-3 2 1 3 1-4-1-3zm51 0q-3 2 1 3 2-4-1-3zm20 0v2h3z"/>
  <path fill="#fdd454" stroke="#fdd454" stroke-width="1.3" d="M343 73q1 1-1 2-3-1 1-2zm-86 3q-1 4 2 6-2 2-4-3zm106 7q-2 4 1 5-1 2-3-1zm-218 30q3 3 0 10h-1q-1-7 1-10z"/>
  <path fill="#fccd49" stroke="#fccd49" stroke-width="1.3" d="M267 5q1 3 5 3h-4q-4-1-1-3zm-24 2 2 1h-2zm39 1q3 1 2 3-4-2-2-3zm41 20q3 1 1 2-3-1-1-2zm-135 1q1 1-2 3-2-2 2-3zm144 7q6 2 3 4-5-2-3-4zm10 9q2 1 1 3-4-2-1-3zm-172 1q2 2-1 3-3-1 1-3zm157 17q1 2-1 3-3-1 1-3z"/>
  <path fill="#fccd49" stroke="#fccd49" stroke-width="1.3" d="m343 63 4 4-3 2 3 1-1 3q3 1 2-4h1v2q6-1 4 3-2 1 2 2 1-2 2 0 3-1 2 3h2l-1 3 3 1-2 4h3q-3 1 0 3l1 2-1 3 3 4v10q4 2 1 10-3 1 0 2 1 6-1 7v8q-3 1-2 6-2-1-1-4-1 3-4 2l1-3-1-1q-3 4-4-2l-3 2 2 2q-2 2-2-1l-5 1q-1-2-5-1-3 1 0 3-1-3-5-2-2 3-3 0-4 2-3-1h-1l-1 3h-2l2-2q-3-2 0-4l-3-1-1 4q2 1 0 3-4-2-2-4-3-2-2 2h-3v-4l-1 3q-3-3-4 1l3 2h-2l-2-3q-3 5-4 1-7 3-6-1-1 1-2-1l-2 1q-3-1-2 3-3-3-4 1l-1-1-4 1q-3-3-4 0l1-3v-1l-3 3-1-2q-3 4-4 3l1-3v-1q-2 4-4 3 3-2 2-3-7 0-7 4l-2-3-4 4h-2q3-1 2-2l-4-2-3 2-3-2q-2 2 0 3 2 3-2 1l-6-2q-1 2-3 1v-3q-2 3-6 3 3 0 2 1l-4-2-3 2-3-2q-2 4-4 2 3-1 2-5l-3 1q3 2 0 3l-3 1-2-2q-3 5-4 1-5-1-5 1-3-4-4-1 1 3-3 1v-2l-3 4h-2l2-2q-1-4-4 0v2q-4-2-4-6-1 3-5 2-1 2-4 2-1-2-4-2-2 2-4 1 2 3-1 1-1 3-3 2v-3q-2 5-5 0l-2 1-2-2q-2 2-6 2-7-1-10-5 2-9-1-13 4-3 1-9l-1-2q1-5-1-6l2-2q-1-3 2-5l-2-2q3-2 3-4l-1-4h2l-1-4q4 1 3-2-3-1 0-2h2l-1-3q3 1 5-3l3-1q3 1 1 3l-4 1h6q-2-4 2-3 1-2 3 0 2-1 1 3h1l2-3 4 3v-3q4 2 2-1h2q-2 3 2 1l2-2v2l-2 3q2 1 4-3l2 2 3 1q-1-4 3-3 0-2 1 0-4 2-1 3l3-1 1-3v3q-3 1 1 2 3 2 2-2h1l1 2 3-1-3-1 3-3q1 3 3 0l2 3q0-3 2 0-2 2 3 1 2 3 3 0-3-1 0-3 3-1 1 3-2 0 0 1l4-1q2 3 3 0-1-3-5-1l4-3q1 3 2 1-2 2 0 3l2 1q1-2 4 2l5-6 3 2-4 1 4 1 3-4q2 4 3 3 0-4 3-4-3 3 1 4 3-1 3-5l1 1q1-2 3 0 5-1 6 1l3-1 1 1q1-2 3 0l2-1v3l3-2 1 3 3-1q-4-3-1-4 0 2 2 1-1 5 3 4 1-1-1-1l1-3v3q4 1 7-2l-2-2h2q-2 2 2 1 2 1-1 3l1 1 4-5q1 2 5 1-1-2 2-4l1 4q1-2 3 0l2-1q-2-1 0-3l2 2q1-3 2 0 4 0 6 2v-1q-3-1 0-3l1 2 2-3q2 3 3 0 4-1 3 3h1l1-4v2h3l-1-4h1q0 3 3 4 2-1 0-2-2-4 4-3zm-3 4v3q2 1 3-1-1-3-3-2zm-174 9q-2 4 2 3 1-1-2-3zm43 0q-3 4 1 3 1-1-1-3zm48 0-2 3q1 3 2 1zm6 0-2 3h4zm-91 3q-3 1 1 3 1-4-1-3zm162 53q-2 1 1 2l3-1q-2-3-4-1zm17 0q0 4-4 2-3-2-4 2h4q1 2 2 0l2 1v-1q2-3 0-4zm-200 4v1h2zm71 1-3 1q-3 2 1 3l3-1q1-2-1-3zm66 0v3q1 1 2-2zm-94 1q-3 4 1 3 2-1-1-3z"/>
  <path fill="#fccd49" stroke="#fccd49" stroke-width="1.3" d="M309 69v1q-3 1 0 3-4-2 0-4zm-102 2q2 2-1 3-3-1 1-3zm94 0q2 2 1 3-4-1-1-3zm-111 3 1 1-2 1q-3-1 1-2zm42 1 3 3h-1q-3-3-4 0z"/>
  <path fill="#f8c53e" stroke="#f8c53e" stroke-width="1.3" d="M303 16q3 0 3 3-1 1-1-2-4 0-2-1zm6 3q2 0 2 2-1 2-1-1-4 0-1-1zm19 13 6 5q-2 1-2-1-5 0-5-3zm39 63 1 4q-1 1-3-1zm1 9v5h-1q-2-4 1-5zm-223 21v7h-1l-1-3zm222 2 2 1-1 2q-3-1-1-3zm-12 3v2l-4 4q-2 2 2 1 0 3 2 1l-2-2 3-2 1 2q2-3 3 0l1 1-1 3q3 1 4-2l1 7q-4 1-1 4-3 12-8 21-8 16-21 28l-5-2v-4q-2 3-3 0l-3 2q3 0 2 1l-3-1-2 1v-1h1q0-3-3-3-2 4-4 3 3-2 2-3l-3 1q-1-2-3 0-2-2-8-1v-3l-4 4h-1q3-1 1-2l-2 1-1-3-2 3q-4 1-2-1-2-3-3 1 3 0 1 1l-2-2q-6 1-7-2l-1 2q-3-4-4-2-4 4-11 4l-2-1q1 3-2 4-2-1 0-3h-2l2-1-2-1q-2 2-4 1 1-4-2-3-2 2 0 3v1l-1-2q-5-3-4 4-1 1-1-2l-3 2q3 0 1 1l-3-3q-3 3-4 2v1l-3-1-1 1q-3-3-4 0v-3l-2 3q-4-1-4 1-4-1-1-4-4-1-3 3l-2 3q-3-4-4-2h-3l3-4-3-1q2 3-1 4l-4 1q-3-4-4-1v1l-1-2q-4-2-3 2h-1v-4q-3 2-2 4l-2-1q-2 3-3 1 1-2 4-2l-3-2q-1 4-5 3l-1-1q-1 2-3 0l-2 2q-2-2-3 0l-8-6q-13-15-18-36-2 3-3 1 4-1 3-5-4 2-3-2l-1-4q2-2 1-3-4 1-3-3 3 2 6-2l2 1-4 1 3 2-3 1h4l2-3v3q-3 0 0 1h2q-2-2 2-4v3q2 0 4-3 1 2-2 3l2 1 2-1 3 3q1-4 2-2l2 2 2-2q0-2 3-4l4 3q0-3 4-3 0 3 5 2 0-3 1 0l2 1 1-3 3 3 1-1q1 4 3 2 0-4 2-4 2 2-1 3-1 3 3 1l1-2 1 1q2-3 3 0 4 1 5-1 1 4 4-2l3-1q1 3 2 0 3-1 2 4 1-3 4 0l1-1 1 1 2-1 1 1q4 0 7-3v3h2q-2-1 0-3 1 3 3 2-3 0 0 1h2q0 3 4 1 2-2-1-2l3-2 2 2v-3q2 3 6 3l1-2 1 2q2-3 3 0l1-3 1 3q2-3 7-4l3 4q1-3 2 0l4-4v1l-1 3 4 1q1-1-1-1-2-4 2-3v3l3-2 1 2q2-3 3 0-1-4 2-3l2-1q1 2 2 1-1 4 6 1l1 2 3-3 1 1q1-4 4-1l1-3v4h3q-1-4 2-2 0 2 2 1l1-4 3 3q-3 1 1 2l1-2v2h3q-3-1 0-2 0 4 7 2 1-2 5-1-1-3-4-1 1-4 4-2 4 2 2-1 3 1 6-3zm-6 6-2 2h4q1-1-2-2zm-165 4q-4 1-2 2l3-1zm10 1q0 4 1 3 2-4-1-3zm91 46v1h3q0-2-3-1zm-97 4q0 4 1 3 1-4-1-3z"/>
  <path fill="#f8c53e" stroke="#f8c53e" stroke-width="1.3" d="M334 132q2-2 4 1l-3 1zm-27 2q3 2 2 3-3-3-4 0zm60 2v4h-2zm-202 2q3 0 3 3-2 1-2-1-3 0-1-2zm166 61q1 1-1 3h-3zm-4 4q3 3-3 4h-1z"/>
  <path fill="#f2bc33" stroke="#f2bc33" stroke-width="1.3" d="M248 5q7-1 8 2-1 2-8 0zm11 0q4-1 5 2h-5zm-23 2 3 1h-3zm-38 14q1 2-1 3-4 0-4 2h-2l4-3zm-8 5q1 2-1 3-3-1 1-3zm134 2q6 2 3 4-5-2-3-4zm-138 1v1l-18 19h-2zm144 3q2 1 1 2-4-1-1-2zm5 5 9 11-10-10zm11 12 2 4q-5-2-2-4Zm-180 1q2 1-2 4-8 9-12 22l-1-1q5-14 15-25zm183 4 4 7q-1 1-2-2 0-4-3-4zm7 11q3 1 3 6h-2q0-5-2-5zm4 8q4 5 4 13h-1q0-8-4-11zM148 86v4h-1zm-1 5v4h-2zm220 0v4h-2zm-222 7v5h-1q-1-4 1-5zm223 1v5h-1q-2-4 1-5zm-224 8v21h-1v-20zm225 1v19h-1v-18zm-1 22v8h-1q-2-6 1-8zm-223 2v6h-1q-1-5 1-6zm222 8v5l-2 1v4l-1 2v2l-1 1-2 6-1-2q5-7 7-19zm-220 1v4h-2zm1 5q8 32 29 50 1-2 3 0l2-2 2 1 4-4q2-1 1 3 1 1 2-2 4 2 6-2-3 1 0 4l1 2v-2q4 1 5-3l3 3 3-3q1 3 2 0l3 1-3 4h3l2-2 2 1q1-3 2 0-1-4 3-3 1 4 5 3l2-3 1 3q1-4 4-1l3 1 1-3 1 2q2-4 3-2-3 0 0 2l4-2q0 3 1 2-1-6 4-4l3-2q-2 4 2 3l4-1q2 2 6 2v-2q0 2 5 1v-1h-3l3-2q1 3 2 0 4 0 6-4 1 2-3 4l3 2q1-4 2-2-2 0 0 2 6-2 7 1l4-4v1l-1 3q4 1 2-1h2l1 1 2-1 2 1q1-4 2-1-1 4 6 1l2 1 3-4v3q4 1 3-1h1q-1 2 3 1 0 4 5 4v-3l2 2q0-3 2 0-2 4 2 2l3 2q5-2 3-4h-3l3-2q1 4 4-1 10-13 18-29v3q-4 2-5 10-7 11-16 20v1q-4-1-3 3-15 17-39 26-7 0-8 3h-4l-1 1h-4l-2 2h-8l-1 1h-24l-1-1h-8l-1-2h-5q-2-2-6-1l-26-12q-17-10-29-24-12-13-18-30v-3l-2-1q0-6-2-8zm40 46-3 3h4q1-1-1-3zm7 0-4 3h3q0 3 1 1zm14 0-4 4h1l4-1q1-1-1-3z"/>
  <path fill="#f2bc33" stroke="#f2bc33" stroke-width="1.3" d="m285 187 3 1h-3zm-107 4q3 1 2 3-4-2-2-3zm48 0q2 1 1 3-4-2-1-3z"/>
  <path fill="#46ae62" stroke="#46ae62" stroke-width="1.3" d="M47 174h9l1 1h8q1 3 7 2l1 1h4q5 4 14 5 21 9 41 23l4 3q8 4 13 11h-2v-3q-2 3-3 0l-4-1q-1 3-3 1 3-1 2-2l-3 1q-1-3-2 0v1l-2-2-2 1q-3-1 0-1v-3h-6q2 4-2 3l1-4q-1-3-3 1-4 1-2-3h-2q2 3-1 2-3-4-4-2 1 3-1 2-1 2-3 1 4-3 3-4h-4q1 4-1 3-3-2 0-2v-2q-2 2-4 1 1-4-2-2-1 3-5 2 1-2-3-5-2 5-4 1l-2 2q-3-2 0-3l-3 1-1-1q-5 1-7-1-1 2-4 1-1-3-4-3-2 2 0 3-4 1-2-1h-2v1l-2-4q-4 1-5-1l2-2-2-2-3 4q3 0 1 1-4-1-1-3l-3-4-2 3q-2-3-3 0l-3-1q-1 2-2 1 2-1 1-4l-1-4-3 1q3 0 1 2-4-3-9-3 3-1 2-4l-3 1q-1-2-3 0 2 3-1 2-1 2-3 1 4-6 11-9 5 0 8-3h6zm85 37q-2 4 3 2 1 3 2 0-3 0-5-2zm325-37q27-1 37 16 4 4 4 12l2 1v13q-3-1-4 1 2 0 1 2l-4-2 1 4q-1-2-2 0l-2-1-2 1q-3-1-3-5-3 1-1 5l-2-2q-2 4-6 4-3-2 0-3-4 0-4 3v1q0-4-3-5l-2 1 1 3-3 2h-1q3-1 1-2-5 0-5 4-3-4-5 2v2l-1-2q2-1 1-4-3 0-4 3-3-1 1-3l-1-2q-4-2-3 2l-1 2 1 1q-2 1 0 3l-5-6-1 2-3 1q-1-3-3 0l-2 1-2-1q-2 4-4 3l2-3-2-1q-1 4-5 2v3l-1-1q1-3 4-3-1-3-5-1 1 4-2 2l-2-1q-2 3-3 1v-2l-1 2-2-2-4 2-1-2q-3 4-4 2 3-1 1-2l-3 1q2 0 1 1-1-2-3 0-8 2-9-2-1 2-3 0l-2 1 1 3h-1q1-4-2-3-1 3-4 1l-2-1-3 3-1-2q-3 3-4 2l1 2q-1 1-2-1 1-4-3-3-1 3-3 2l-1-4q-4-2-3 2h-1v-4q-7 3-3 6 2 2-1 1l-4-1q1 3-1 2h-1l6-6q21-19 48-33 11-4 22-11l6-1 4-3 8-1 2-1h5l1-2h8zm-23 50-3 3h3zm-73 1q-2 2 2 3h1q0-3-3-3z"/>
  <path fill="#46ae62" stroke="#46ae62" stroke-width="1.3" d="M32 190v2h-2zm120 30q3 0 3 5-2 3-4-2zm348 1v6h-2q-1-4 2-6zm-343 3 4 5-4-1q2-3-1-3zm203 5q1 2-1 3h-3zm58 2 3 1h-3zm-252 1q6 2 3 4-5-2-3-4zm177 2 1 2q-6 1-9 8h-1Zm-11 11v1l-4 4h-1z"/>
  <path fill="#43aa60" stroke="#43aa60" stroke-width="1.3" d="M27 182q0 2 3 1 1 3-2 4 5 0 9 3v-3q3-1 2 3 0 4 4 5h1q-4-3-1-4l2 3 2-2q1 3 2 0l4 4 2-2 2 2-2 2q1 2 6 2l1-1 2 1q1-2 2 0l3-1q3 3 1 4 4 1 6-3v3q5 1 6-1l7 4q2-6 5 1-3 0 0 1h3q1-2 4-2-2 3 2 2 2-4 3-1l-3 4h3q-1-4 4-3l1-1q1 2 3 1-3 1 1 3 3 1 1-2h2q-2 4 2 3 2-4 3-1l-1 4q4 1 2-3h6v3q4-2 2 2h2l1-2q-1-3-4-2 1-2-1-2 1-3 4 1 2-1 3 1-2 0 0 2h2q1 2 6 4 0-3 2 0-2 2 2 1 0-3 2 0 0 5 4 5 1-2 2 2-1 2 3 1 1 3 5 3 0 3 4 5h1l7 8v1q-1-3-4-3-1 3-3 2l2-3q-2-3-3 1h-3q4-2 3-4-4 0-4 3l-1-1q2-2 1-3-5 0-5 3l-1-3q-2 3-3 0l-3-1q-1 4-5 2 1-4-4-2l-3-3q-2 3-4 1l2 3q-2 1-3-1l-1-4-1 2q-3-1-2-3l-1 2q-3-1-1-4-2 3-4 3-3-1 0-3l-3-1-5 3q-3-2 0-3l-4 1q2 0 1 2-1-3-3 0l-2-2q2-1 1-2l-5-2q-1 3-3 2l2-3q-2-3-2 0l-2 1q-3-1-3-5l-1 3h-3q3-2 1-3l-5-1-4 2q-2-4-5-1l1-3v-1l-1 1q-3-2-4 0v-2q-1 2-3 1v-3l-1 2q-1-3-3 0l-5 1q-3-4-5-1 1-4-2-3-2 1 0 3-2-2-2-6l-1 2-2-2q-2 4-4 3 3-1 2-3-6 0-6-2l-1 2-1-2q-2 2-3 1 4-2-1-5-4 1-4-1-3 2-8 1l-4-1q-1 2-3 1 3-1 2-3h-4l2-1q-4 0-4-3-1 3-2 2 1-7 5-8v-3h3q-3-3 1-4v3q3 1 1-2zm5 8-2 2h2zm-16 2q-1 6 3 4 1-5-3-4zm7 4q-3 0-1 4h1zm4 2q-4 2 0 4h1zm38 2q-3 4 1 3 2-1-1-3zm46 8-2 3h2zm-10 12q-3 3 0 4l2-1zm11 5q0 4 2 3 1-4-2-3z"/>
  <path fill="#43aa60" stroke="#43aa60" stroke-width="1.3" d="m33 206 3 1h-3zm14 3q1 2-2 3-2-1 2-3zm447 4q2 3 3 2-3 0 0 1 5-1 3 5-3 0-2 6 3 0 2 1l-3 1 1 3q-2 1 0 2-1-2-2 0l-2 3q-1-3-2 0l1 4-5-1v2q-3-1-2-4l-1 3-1-3-2 3q-3-1-3 1l-3-2q-1 2-3 0-5-2-4 2h-1v-5q-3 1-1 4-4-1-6 3l-1 2-1-1q2-1 1-3l-5 2q2-6-1-4 1 2-2 4-4 0-4 2l-1-1q-1 3-3 0-5 0-5 3-1-3-3 0l-6-2v3l-2-3q-1 3-2 0-5 2-5-1-3 4-4-1-4-2-3 2 3 0 1 2-2-2-2-6l-3 4q-1-2-3 0l-2-2q-4-2-3 2h-1l-1-4q-3 3-8 3l-2-1q-2 4-4 2 3-1 2-2l-3 1q-1-3-5-1 2-2 1-3h-3q3 5-1 4-2 3-4 0v-3l-4 4q-2-4-4-1-5-1-6 1l-2-1-1 1q-3-4-4-1 1 3-3 1v-2l-1 2q-1-2-2 0l-2 3q-2-1 0-3-6-1-5 3-1 1-3-3-4 0-5 3 3 0 1 1-4 2-2-1 4-1 2-5h3q1-4 5-4 0-3 3-4h1q-2-2 0-3h4q-1-4 3-2l5-6v2l1 2v-2l6-2q2 2 1 3-4-1-3 3 2 1 3-2 4-1 3 3h1l1-3 2 2 2-3q2 3 3 0l5 1 3-1q-3-1 0-3l4 3 2-1-2-2 2-1q4 3 3 5h5q-4-2-1-4 1 6 4 2l4 1q0-3 1 0l1 1 3-1-3-1 3-2 3 4 1-2 1 2 4-2v2q3 2 2-2h5q1 2 2 0l2 1-2 3h2l2-3q2 3 3 0 3 0 4-3l3 2q1-3 4 1l2-3q-1-4 3-2 1 4 4 2l1 3q3-1 1-4l2 1q1-2 2 0l3-2 3-2q0 3 1 2l-1-3 2-1q3 1 3 5 0-3 3-4l5 1v-2q1 2 2 1l2 1 1-5q0 4 3 5l2-1q2 3 3 0l-1-3q1-2 2 0h2q-4-2-2-4zm-141 16-2 3h2zm65 2v1h3q0-3-3-1zm58 6v3q1 1 3-2-2-2-3-1zm-120 4q-3 4 1 3 2-2-1-3zm34 0q0 4 2 3 1-4-2-3zm44 4v1h2z"/>
  <path fill="#43aa60" stroke="#43aa60" stroke-width="1.3" d="M435 223q3 1 1 2-1-2-2 0 1 3-2 2h-1zm-54 2q1 2-1 3-3-1 1-3zm-261 6 3 1h-3zm21 6 3 1q-1 3-3 2zm282 11q4 2 0 4h-2l2-2q-2-1 0-2zm-238 2 4 6-5-4zm138 6q3 2-2 4h-2z"/>
  <path fill="#3ca15c" stroke="#3ca15c" stroke-width="1.3" d="m12 208 2 1v10h5l1 1q2-3 3 0 3 1 4-1l3 4q1-3 2 0l3 1q-4 1-2 3h11q-1 4 11 2 1-2 2 2-2 0 0 1l3-1 1 2 3-1q0 2 5 1 0-2 1 0-2 0 0 1h7v3h3q1-3 2 0 3-1 4 1-2 2 1 3h3q-5-4 1-7 2 2-1 3 0 4 4 5 1-4 4-1l3 1v-2h-3l3-2q2 2 1 4h8v2h-4l1 2 3-1q0 3 1 1 0-4 3-4v3l1 1q-3 0 0 2l3-2 1 2q1-3 3 0 1 2 8 1l4 3 1-3q1 4 8 5 0-2 1 0l1 3v-3h3l-3-1 2-3 5 4q0-2 1 0-1 4 4 2l2-3q0 3 2 4l2-1q1 2 2 1-2 1 1 3 3-2 2-4 2 4 8 4 0-3 1 0l1 2 4-2q-1 5 6 2l1-2v2q4-1 2 3h4q2 5 6 4-2 4 2 6-2 3-9 2l-1-2-2 2q-2-3-3 0v-4q-2 2-4 1l-3-1-3 1q-2-3-6-1v-3q-3 4-4 3 1-6-5-3-3 3-4 0v-3l-2 3-2 1q1-1-2-4l-2 2q2 0 1 1l-4-1-1 1-2-1q-1 2-2 0l-3-2q-1 3-4 3v-1h1l-1-3q-5 1-5-1l-3 1-1-1q-1 2-3 0-5 0-5-3l-1 3-2-3q-2 4-4 3 3-2 2-3h-4q2-1 1-2-4 0-4 2l-1-1q-5 0-7-3-2 4-4 3v-3l-1 2-4-4q-4 0-4 2l3 2h-2l-5-6q-1 3-2 0h-4q1-4-2-2l-2 1q-3-4-4-1l-3-2q-1 3-3 0-4 2-2-1-2 1-3-1l-1 1-4 1q1-1-1-4-4 3-2 4-4-1-1-4l-3 2q-1-3-5-3-1 3-3 0-4 1-4-1-1 2-5 1-2-1 0-3l-4 2q-2-4-8-4v4q-4-7-4-15l2-2-2-2-1-8q3-1 1-6-2-2 0-3zm137 46q0 4 2 3 1-4-2-3zm352-46v4h-1z"/>
  <path fill="#3ca15c" stroke="#3ca15c" stroke-width="1.3" d="M37 224q3-1 4 1h-4zm135 12q2 1 1 2-4-1-1-2zm12 12q2 1 1 2-4-1-1-2zm-126 2q2 2-1 3-2-1 1-3zm432 6q-2 1 0 4v1q-4-1-2 2 2 2 0 3-3 3-2 7l-2 1q2 0 1 1l-3 2q3 1 0 2 2 4-1 4l-4-1v-3l-4 6q-4 1-2-2h-2q2 3-1 2-1-3-3 0-8-2-9 1-1-3-2 0h-3q1 4-1 2l-4-1q-2 3-3 0-5-1-4 3-1-3-3 0l-1-2-5 2v2l-4-2-3 1q-2-1 0-3-4-1-5 2l3 1q-3 1 0 3l-4-2v-2q-2 2-3 1v-3q-1 3-5 2-2-3-3 0-4 1-3-2h-1v2l-1-3q-1 3-3 0l-4 1q3 0 2 2-3-2-3-4l-1 1q-3-4-4-1l-3-1-1 2q-3-2-4 0 1-5-2-4-2 2 0 3v1l-3-1q-2 2-3 1 3-1 1-2l-4-2q-1 3-2 0-3 3-7 2l-4-2q1 3-1 4-3-1 0-2-6 1-6-3-1 3-2 0l-3 1q3 0 2 2l-3-3q-3 4-4 3 3-2 1-3l-4 1q3 0 2 2l-2-2q-1 3-2 0l-6-1-5 3q-2-3-6-3-3 1 0 3-3-4-4-2v3q-3-5-10-4 3-1 2-4 2 1 4-1 0-6 4-7h1q-3-3 1-4l2 1 1-1q1 3 3 0l2 1q1-2 7-2 1 2 2 0l3 2q1-2 3 0h2q-2-1 0-2l3 2q1-4 4-1h2l-2-1 2-2q2 3 3 2-1 2 3 1v-3q1 6 4 2 1 2 6 1 2-3 3 0l3-1q0 2 2 1-1-4 3-3 0 4 5 3l3-3q1 3 2 0l2 3 1 1 1-2q2 2 8 1 3-5 5 1-2 0 0 2 3 0 4-3 0 3 4 1 0-2 2 0-3 2 1 3l5-1q0 2 2 1 0-4 2-4 0 3 4 3 0-3 1 0-2 0 0 1l3-1q-3-2 0-3 1 3 5 3l2-2q1 4 2 3l-1-3q1-2 3 0 4-1 5 2l3-3q1 4 4-1l1 1 1-1 1 1q2-3 3 0h1q2-3 7-4 1 3 3 1l-2 3q2-3 4 0h2l-2-3q2-3 3-1-3 0 0 1 3 2 4-1l1 1q1-2 3 0 0-3 2-3-2-2 0-3 2 4 4-1zm-22 7q-1 3-5 3h4q0 3 1 1zm11 15q-2 5 2 4 1-5-2-4zm-122 1v3q2 1 3-1z"/>
  <path fill="#3ca15c" stroke="#3ca15c" stroke-width="1.3" d="M361 262q3 1 2 3-4-2-2-3zm-156 16q2 0 2 3v1q-5-1-2-4zm-98 111q3 2-2 4-3-2 2-4zm323 50v5h-2q-1-4 2-5zm-115 29q3 1 2 2-4-1-2-2zm6 6 7 9-9-8zm98 8q2 1-1 3-3-2 1-3zm-237 1q3 3-2 4h-2zm-81 6q5 2 2 4-5-2-2-4z"/>
  <path fill="#40a75f" stroke="#40a75f" stroke-width="1.3" d="M16 192q4-1 3 4l-3 2 4 1-2 1h4q1-4-2-4 2-2 3 2 1 2-1 4h4q-3-2 1-4l1 4-2 1h7q2-3 3 0 7 0 7 5l1 1 1-2q2 2 6 2l1-1 1 1 2-1q1 3 2 1l-1 4q1 2 2-1 3-1 2 3 1 1 4-3l1 1 1 2-2 1h4l4-3q1 3 2 2l2 1q0-3 1 0l1 1 2-1q1 3 2 1 0 4 4 4 1-2 7-2l2 2q-2 0 0 2 3 1 2-2h1l1 3 2-4 4 3q0-3 1 0l-1 2q2 2 4-1v3l5-2q-2 4 4 3 0 3 4 1 1-4 2-1-2 0 0 1l2 2q-3 0 0 1l2-1q-2-2 0-3 3 1 3 5 0-2 3-4 1 2-2 3l2 2 1-2 2 4q0-3 3-4 1 5 8 4-1 4 3 2-3-1 1-4 1 3 3 2-3 0 0 1l2 1q0-2 2 0l1 2 3-2q-3-1 0-2l2 2-1 3q1 1 4-3l1 2q-4 1-1 2l4-2v2q4 0 5 3l1-3 4 6q2 5 7 8 2 0 2 2v2q6 2 8 9-1 1-2-3-2 3-3 1 3-1 1-2h-4q2-4-1-3-1 3-2 0h-6q2-4-1-2-3 1 0 2-3-2-4 0v-4l-3 2-5-3q-4 3-1 4l-4-4q-3 4-5-1v-3l-2 3q-5 2-4-2-1-2-2 2v1q-3-3-4 0 2-1 1-3-4-1-3 3h-1v-4q-1 3-3 0-4 1-4-1l-2 4-4-2 3-1q0 3 1 1l1-2q-1-4-2-2v2q-3-4-10-3l-2 1v-1h1l-3-3-1 2q-1-3-3 0h-2q2-2 1-3l-3-1-1 2-2-1q-2 3-3 1-1-4 4-2v-2q-9-1-8 3h-1l-2-4q-4 0-4 3-4-3-5-8l-3 2q4 2 3 3-4 1-5-1 2-2 1-3-5 1-5-1-1 2-4 1 1-5-7-3l-1-1q-5 1-7-1-2 1 0 2-2-1-2-3l-3 1q-2-5-12-3-1 3-2 2 2-2 1-4H32q4-3 3-4l-4 1q-3-1-3-4-1 3-2 0-4 1-4-1-2 2-3 0h-5v-10l-2-1q3-1 0-2 0-6 3-6-3-2 1-4zm17 14v1h3q0-3-3-1zm4 18v1h4q-1-2-4-1zm83 7v1h3q0-3-3-1zm21 6v3q2 1 3-2-1-2-3-1zm6 13q-3 4 1 3 1-1-1-3z"/>
  <path fill="#40a75f" stroke="#40a75f" stroke-width="1.3" d="M82 212q2 1-1 3-3-2 1-3zm419 0v4h-1zm-154 19q1 1-1 2-3-1 1-2zm149 1 2 5q-2 0-2 4 2 1 0 3l-2 2q3 2 0 3 0 4-2 7v2q-3 2-3-1-4 3 0 4 3-1 1 2-4 2-2-1-2-4-4 0v1l-2-1-1 1q-1-2-2 0-4 2-4-1l-2 3q3 0 2 1l-3-1q-1 2-3 1v-3q-2 2-1 4l-4-1q-1 3-3 0l-2 1-3-2-2 2q-3-2-4 2l-2-2q-1 3-2 0-7-1-6 3-2 4-4-1l-2 2h-3l4-2-3-2q-1 3-4 3l-5-4q-2 1-2 4l-4-1-3 1-7-4q-1 3-4 3 2-2-1-4l-1 1q-1-3-3 0-6 1-8-1l-1 2-1-2-2 1-1-1-1 1q-2-3-3 0-4 1-4-1-1 2-2 1 2-1 1-3h-3q2 4-1 3-1 3-3 0l-2-1q-2 2-6 1l-2-1-2 1q-1-3-2 0-4 1-3-1-1-3-3 1 3 0 2 1l-4-1-1 1-2-1-1 1q-1-2-3 0-4 2-4-1l-1 1-1-1q-3 4-4 3 2-3 0-4-6 0-7 2l-2-1q-3 1 0 3-4-6-7 1l-3 1q-2-1 2-2h1l-1-2 4-4q0-3 2-3 4 0 4-3 0-4 3-5 2 0 4-3l2 1v-2l4-2q2 4 3 3-1-4 5-3 0 3 2 2l1-3q0 3 1 1l1-2v2q4 2 3-1t-4-3l3-1 5 5 1-1q2 3 3 0 5 1 7-1l2 2 6-5 1 1h-3l2 3q1-3 2 0h1q-1-5 3-4v3q3 1 4-2l4 3q3-1 1-4 3-1 2 3-3 0 0 1 6 0 10-4v1l-2 2 2 2v-2q4 0 5 2 2-2 3 0l1-1 2-3 1 4v-2q4 0 5 2 2-2 3 0 5 3 4-1h1q0 3 3 4v-3l6-1 2 1 1-1q1 3 3 0 2 1 4-1 2 5 5 0l3-2q-3-1 0-2h1q-1 5 2 4l3-2q1 2-1 3l1 1 4-5q4 1 3-3h1q-1 3 1 4v-2q4 1 6-2 0 3 1 2-1-4 3-3-3 3 1 4t2-1h2l1 1 1-3 2 4v-2l5 1-1-4q2-4 4-1-3-3 0-4zm-62 14v2h2q0-3-2-2zm30 17v2h3zM65 234q3 2 1 3-4-1-1-3zm109 4q3 2 2 3-4-1-2-3z"/>
  <path fill="#40a75f" stroke="#40a75f" stroke-width="1.3" d="M357 240v1q-2 1 0 3-4 1-2-2zm6 0q4 2 0 4h-2q3-3 2-4zm-53 33q1 1-1 2-3-1 1-2z"/>
  <path fill="#319457" stroke="#319457" stroke-width="1.3" d="M493 186q3 1 1 2-4-1-1-2zm-374 10q3 2 1 3-4-1-1-3zm22 15q3 1 2 2-4-1-2-2zm27 21q2 1 1 2-4-1-1-2zM26 260q-3 2 1 3l1-2v2h3q-3-1 0-2 0 2 4 2l-4 2q1 2 4 0l2-2 2-2 1 4-4 1h7v-3q1 4 8 3l2 3 2-3q1 4 3 3-2 0 0 1l3 1 1-1q-4-3-1-4 4 3 3 5 4 0 5-2l3 2q-3 0 0 2l4-2q0 3 1 2l1-3q0 3 3 4 1-3 3 0 2-1 1 3h1l1-3 2 3q1-3 2 0 2 2 7 2v-1h-3q2-3 4-1-2 6 6 4v-2h-4q4 0 5-2v5q-3 0 0 1l3-1 1-3q-3-1 0-2 2 1 1 4h3l5 4q0-3 3-4v2h2q-2-1 0-2 2 4 4 2-2 2 2 3 2-1 1-4l1 1q4 0 5 3l-2 1h4l5-4q4 0 5 4l2 1q1-2 2 0l2-2 1 2 4-2 4 2 1-2q0 2 3 1l1 3 4-3 3 3q1-3 2 0h2q-3-2 0-3 1 3 5 3l3-2 5 4v-2h2q2 4 4 2l2-2v2h2q-2-1 0-2 2 2 3 0 4 0 7 2 0-2 1 0-3 2 0 3 4 3 4 9-5-1-4 3h-3q2 3-2 1-3 4-4 3 2-1 1-3l-3 2-4-2-1 2q4 1 3 2l-4-2q-2 2-3 0-4 1-4-2-1 3-4 2 2-3-1-4l-1 2-3 2q-4-2-1-4l-4 1q2 0 1 1-1-2-5-1-3 3-8 1v-2l-1 2-6-1q2-3 6-1-2-3-7-2-1 3-5 2-3-4-4-2v2q-3-4-11-3l-1 1q-1-2-3 0l-2-2q-3 4-4 2-2-4 2-2v-2q-8 3-6-1h-2v1h-6q1-4-4-2l-4 2q-3-1 0-1 1-4-3-3l-1 2q-1-3-3 0l-2-2q-2 3-4 2v-3q-2 3-3 1v-2q-3 2-4 1v1q-2-2-4 0 3-1 2-2-4-2-3 2-1 2-3-1v-3q-1 3-2 2v-3l-2 1q-1-2-2 0-4 2-4-1-2 3-4 1v-2q-2 2-3 1 1-4-1-3l-3 2-2-3q-7 1-8-1l-2 1-4-4-6-1v1l1 2q-3 0-1 3-3-6-8-11 0-6-3-7v-4l-2-4zm106 25q0 5 3 1 0-3-3-1zm36 19q-3 4 1 3 1-1-1-3zm133-8 4 6 1-2q1 3 3 2-3 0 0 1h2q2-3 6-1l-3-2 3-1q0 3 4 3 1-4 2-2-2 0 0 2 5-2 7 1 1-4 2-1 0 2 3 2 0-2 3-4 1 2-2 3-1 3 3 1l3-2q1 2 2 0l3 2q5 2 6-1l4 3q2-4 4-2l2-2 1 4q0-3 1 0v1q4-1 3 3h1l2-3 1 1 1-1q2 3 3 0l5 1q1-2 3 0 4-1 2 3h6q2 1 1 4 5 1 7-1-3-2 0-3 0 3 1 1l-1-2q1-3 2 1l-1 3q4-2 5 1l1-3q0 3 3 4l3-1v1q-4 1-2 3 7 1 11-2l1 2 2-2 1 2q1-3 2 0h11l-3-2 2-2q1 2 2 0l4-1 3 1 7-5v2l-3 2h4q0-3 4-2l-3-1q1-3 5-1-1-4 3-3 1 1-1 3v1q-4-1-3 3l-5 5q-1 5-5 8h-2l-5 5h-3q2 3-1 4-5 0-5 4h-4q1 2-2 4-3 0-3 2l-4-2q-3 4-11 1-1-3-3 0 2 3-2 1l-4-1-1 1q-3-2-4 0v-4q-2 3-3 2 1-4-1-5-4 1-2 2l2 1-4 2q2 0 1 1l-4-3q-1 3-3 2 3-2 2-3l-3 1-3-2q-2 2-3 1v1l-6-3-1 1-1-1q-2 2-3 0h-4l4-2q1 3 3 0-2-2-7-1l-1-1q-2 2-6 1 2-3-4-7l-2 3q4 1 2 3-2-3-3 0 2-2 1-3-4 1-3-1-1-3-1 0-7-2-8 2-4-1-1-2 1 2 2 0-1-3-4-2v-2q-1 2-4 2-2-1 0-1v-3q-1 3-5 2v-3l-2 1-4-1q-3 4-4-1-4-2-3 2h-4l-1-1-2 1q-2-2-4 0 3-4 4-1 2-4-2-3-2 3-3 2 3-2 0-3v-3l-2 2-3-2q1-6-1-9 1-5 4-6-3-2 0-3h5q-3-1 0-3zm41 7q-3 3 0 4 4-1 0-4zm59 11q-3 3 1 2 1-1-1-2zm4 2v3q1 1 2-2zm21 24q0 4 1 2 1-3-1-2zm-12 2v2h3z"/>
  <path fill="#319457" stroke="#319457" stroke-width="1.3" d="M123 302q3 1 1 2-4-1-1-2zm270 6q3 2 1 3-4-1-1-3zm-209 2q2 1 1 2-4-1-1-2zm235 4q3 2-2 3h-2zm3 32q1 2-1 3l-3 1q-3-1 1-2zm-8 4 1 2-2 1q-3-1 1-3zm-188 28v5h-2q-1-4 2-5zm62 4v4h-2z"/>
  <path fill="#3f953f" stroke="#3f953f" stroke-width="1.3" d="M44 173h14v1H44Zm412 0h12v1h-12zm-9 1 3 1h-3zm-421 5q1 2-2 3-2-1 2-3zm463 2 4 5-5-4zm-470 5q1 1-1 2-3-1 1-2zm477 2q2 2 1 3-4-1-1-3zm-102 7q2 1-1 3-3-2 1-3zm-274 1q3 2 2 3-4-1-2-3zm381 4v4h-1zm-117 2q1 1-2 2-2-1 2-2zm-253 1q3 1 1 3-4-2-1-3zm4 3q2 1 1 2-4-1-1-2zm-124 1v17h-1v-16zm365 0q1 1-1 2-3-1 1-2zm-237 1q2 1 1 3-4-2-1-3zm233 1q1 2-1 3-3-1 1-3zm130 0v11h-1v-9zm-359 2q2 1 1 2-4-1-1-2zm224 2q1 2-2 3-2-1 2-3zm-219 2q5 2 3 4-6-2-3-4zm213 2q2 2-1 3-3-1 1-3zm-208 2q6 2 3 4-5-2-3-4zm203 2q1 2-1 3-3-1 1-3zm-196 3q5 3 3 4-6-1-3-4zm189 3v1l-3 4h-2zm152 0v4h-1zm-489 2v4h-1zm156 2 6 7-8-6zm172 3v2l-13 13h-1zm-155 14 5 6-6-5zm137 6v2l-4 4h-1zm-127 6q3 1 2 2-4-1-2-2zm120 2q2 1-1 3-3-2 1-3zm-116 3q3 1 2 2-4-1-2-2zm112 2q2 2-1 3-3-1 1-3zm-109 2q3 1 1 2-4-1-1-2zm107 2q1 2-2 3-2-1 2-3zm-28 16v11h-1v-10zm18 0q2 1-1 3-2-2 1-3zm-67 4v90h-1v-89zm247 0q1 1-2 3-2-2 2-3zm-440 7q2 1 1 2-4-1-1-2zm2 4q3 1 2 2-4-1-2-2zm430 1q1 1-2 3-2-2 2-3zm-426 4q3 1 2 3-4-2-2-3zm422 1q1 2-2 3-2-1 2-3zm-416 6q5 2 2 3-5-1-2-3zm412 0v1l-4 4h-2zm-237 11v4h-2zm60 6v14h-1v-13zm-217 1 3 4q-6-1-3-4zm375 0q3 3-2 4h-2zm-367 7q3 1 1 2-4-1-1-2zm359 0q2 1-1 2-3-1 1-2zm-209 1v37h-1v-36zm-145 2q3 2 2 3-4-1-2-3zm349 0q1 2-1 3-3-1 1-3zm-345 3q3 1 1 3-3-2-1-3zm341 0q1 1-1 3-3-2 1-3zm-141 21v16h-1v-15zm-166 12q2 1-1 3-3-2 1-3zm274 1q3 2 2 3-4-1-2-3zm-278 2q2 1-1 2-3-1 1-2zm116 1v74h-1v-73zm166 0q3 1 2 3-4-2-2-3zm-287 3q3 2-2 4h-2zm115 2v8h-2q-1-6 2-8zm179 0 8 9-10-7zm-117 4v5h-2q-1-3 2-5zm-187 4q2 3-3 4-3-1 3-4zm314 4q3 1 2 3-4-2-2-3zm-318 1q2 3-3 4h-1zm127 0v4h-1zm65 0v6h-1q-2-4 1-6zm129 3q3 1 1 3-4-2-1-3zm-195 5v4h-1zm67 0v4h-1zM84 429v4h-2zm346 3v5h-2q-1-4 2-5zm-348 9v8h-1q-1-6 1-8zm129 5v3l-2 4q-3-1 0-1 0-4 2-6zm92 3q0 4 3 7-1 1-3-2-2-2 0-5zm127 5v6h-2q-1-4 2-6zm-224 3q1 1-1 3-3-2 1-3zm103 3q2 1 1 2-4-1-1-2zm-106 1q2 1-1 3-3-2 1-3zm108 3q3 1 2 2-4-1-2-2zm-110 1q2 3-3 4h-1zm114 4q6 3 3 4-5-1-3-4zm-118 1v2l-15 14h-1zm77 3q2 1-1 2-3-1 1-2zm47 2 5 7-7-5zm-231 2q3 1 1 2-4-1-1-2zm333 0q2 1-1 2-3-1 1-2zm-330 4q2 1 1 2-4-1-1-2zm160 0q4-2 6 1h-6zm77 2 4 6-6-4zm-235 2 6 6-7-5zm323 0v1l-7 7h-1zm-240 2q2 2-1 3-3-1 1-3zm158 2q3 1 2 2-4-1-2-2zm-162 1q2 1-1 3-3-2 1-3zm166 1 4 4q-1 2-1-1-5-1-3-3zm-235 2q2 1 1 2-4-1-1-2zm304 0q1 1-2 2-2-1 2-2zm-62 2q2 0 4 3h-2l-3-1zm-219 7h16v1h-16zm241 0h16v1h-16zm-62 16q3 1 2 2-4-1-2-2z"/>
  <path fill="#369b5a" stroke="#369b5a" stroke-width="1.3" d="m16 240 6 1q0-3 1 0-3 1 1 3l4-2v3q4 1 5-1 2 2 6 2l4-1q1 5 4 1l2 2 2-2q1 3 2 2-2 0 0 1h3q-3-1 0-3 1 4 4 3-2 3 2 1 2-2 4 2l3-2q0 3 4 3l4-3q1 2-1 3-2 3 4 1 1 3 2 0l4 4 3-2 2 1q0-3 2 0-3 1 1 3 0-3 1 0l2 1q1-4 4-1l4-2v2l-3 1h4l1-1q2 2 3 0l1 1q-2 0 0 1l4 1q0-2 1 0l2 2 1-3q1 3 7 4 1-3 2 0l3-1q0 2 5 1l1 1q2-2 4 2l3 1q1-4 4-1l4 1v-3q1 3 5 3l2-3q0 3 2 4 2-2 7-1l1 3q1-4 3-2-2 4 5 2l3 1v-3q1 3 6 3v-3q3 2 3 6 2-6 5 0h7q-3-2 0-3l4 4q-4 1 2 4 3-1 2 4 4 2 5 8-1 1-1-2-3-2-7-2-3 1 0 2-1-2-3 0-4 2-2-1h-2q2 3-1 1t-4 0q3-1 1-2-4-2-2 2-3-2-4 0 2-1 1-2l-4-2q-2 2 0 3-1-3-5-3l-3 2-1-2q-3 4-4 3 3-3 0-4l-4 3-1-3q-3 1-3-1l-1 2-4-2-5 4q2 0 1 1-4-5-7-3v-2l-2 2-4-3-2 1-5 1q-1-2-2 0l-3-2-1 1-3-3-4 4h-1q4-2 2-4-4 2-4-1l-1 3-5-4h-2q-2 1 0 2-3-1-1-2v-3l-4 5h-2q2-1 1-5-1-3-1 0l-4 1 4 2h-6q3-6-2-4v1l1 1h-3l-5-4q-1 3-3 2v-3l-1 3-1-3-3 1q3 0 2 2-6-2-6-7l-1 3-3-2q-2 2 0 3l-4-1q3-2 2-3l-3 1-3-1-2 1-2-1q-1 3-2 0l-3-1q-2 4-4 2 5-2 2-5l-2 3-2-3q-6 1-7-1-1 2-7 1l-2-1q-3 4-4-2-4 2-3-1h-1v1l-7-3q0-6-2-7v-3l-2-1q3-1 0-3zm23 21-2 2q-2 0 0 2h3zm-7 1v1h3zm100 21v2h3zm13 2q0 5 3 1 0-3-3-1z"/>
  <path fill="#369b5a" stroke="#369b5a" stroke-width="1.3" d="M39 241q1 1-2 3-2-2 2-3zm-16 21 1 5h-1q-3-2 0-5zm456 16q3-1 2 4l-2 1 2 2-4 1q3 1 0 2v3q-4-1-2 4-4 8-11 15-3-2 0-3-4-1-3 3h-4v1l2 1h-3q-2 3-6 3-2-3-3 0-4 0-4 2h-1q4-2 2-3-4 0-5 2 3 1 0 3h-11l-1-2q-2 6-5 0-4 3-11 2-2-2 0-3l-4-1v-3l-2 4q2 0 4 3-3-3-4 0l-2-3q3-1 2-2l-4 1q2 0 1 1-4 1-2-1-2-3-2 0-6 2-5-1-1-4-7-3 2-4-2-3-3 4-4 3 2-1 1-3l-5-1-1 1-2-1q-2 3-4 1v2l-1-3-3 1q-2-1 0-1v-3l-2 4-2-1q3-1 2-4h-2v1q-2-2-4 2 4 1 3 2-3-4-4-1h-3l3-1-3-3q-2 3-7 3 2 0 1 1l-3-3q-2 4-4 3v-4q-1 3-4 1v-2l-1 2q-3-1-3-4-2 6-4 2-5 1-6-2l-4 3q-1-3-5-1-2 2-4 1-3-4-6-1v-3q-1 3-2 0-7 3-5-1l3-6q-2-1 0-2v-3q4 1 3-1 3-1 1-4 4-1 7 1 0-2 1 0-2 2 2 3l1-4q1 3 3 0l5 1 2-1q-2-1 0-3 3 3 2 4l4-1q0 3 4 1l1-1q1 3 3 0 4 1 2-1h2q0 2 2 2l3-1 1 1q1-2 3 0l4-4 1 3q-3-3-5 3 4-2 5 1v-3h3l-2-4 3 2-1 1q2 1 1 3 4 1 7-2 1 3 2 0l4 2q0-3 2 0-3 0 0 1l3 1v-1q-2-1 0-3 3-1 2 4h1q1-2 3 0l1-2q-3-2 0-3 3 3 1 4l3-1q1 2 3 0l1 2 1 1 4-1q2 3 3 1l1 2 1-3v3q3 1 4-2 0 3 6 2 0-3 1 0l1 1q0-3 2 0-2 3 2 1 3-1 2-2h-3q1-3 5-2v3l4-1q1 4 3 2l-2-2q2-3 3 0h1q-2-2 0-3l3 1 1-1q2 4 3 3-1-4 4-3 1 3 3 0 2 1 4-1v2h1q-1-3 3-2l1-1q1 2 2 0 8 2 11-3v3q3 1 1-2h2q-2 3 2 2 2-2-1-2l1-2 2 2 2-4 2 3zm-25 32-3 2h3zm-16 5q-3 4 1 2 1-1-1-2z"/>
  <path fill="#369b5a" stroke="#369b5a" stroke-width="1.3" d="M351 306q2 1 1 2-4-1-1-2zm34 4q1 1-1 2-3-1 1-2zm75 1 3 1-7 7h-1q6-3 5-8zm-79 1q1 2-1 3-3-1 1-3z"/>
  <path fill="#25824c" stroke="#25824c" stroke-width="1.3" d="M23 182q3 2-3 4h-1Zm355 24q2 1-1 2-2-1 1-2zm-9 6q2 1-1 3-3-2 1-3zm-10 8q1 1-2 3-2-2 2-3zm-202 3q3 1 2 2-4-1-2-2zm196 1q3 3-2 4-3-1 2-4zm-341 1v4h-1zm152 3q2 1 1 3-4-2-1-3zm180 4v1l-4 4h-1zm-168 6 5 7-7-5zm152 10v1l-5 5h-1zm-137 8q6 2 3 4-5-2-3-4zm128 2q2 2-1 3-3-1 1-3zm152 44q1 1-2 2-2-1 2-2zm-11 13q1 1-1 2-3-1 1-2zm-405 1 2 4q-5-1-2-4zm168 9 1 4-1 4 1 2q-1 5 2 6l-3 1q3 0 1 2l-2 1q2 0 1 1-5 0-5 4 2 2 0 3l-2-1-3 4q-4 0-6 2 3 0 2 2-2-3-3 0-4-2-3 2-1 2-1-1l-5 1v3l-3-1q-3 2-6 1v2l-3-2q-3 2-4 1v3l-3-3h-19v1h10v3q-1 1-1-1-11-2-15 1v-3q4 2 3-2-5 2-13 2l-6-2h-6q-1-3-5-1-7-4-15-6l-6-4h-4q1-4-3-2l-3-3h-2q-2-3-6-3v-2h-3v-3q-6 3-4-1l-2-3q-4 2-5-1-1-4 1-5l2 1q1-3 2 0 3 1 2-1h1v1q5-1 4 3-3 0 0 1 5 1 8-3v3q2 1 4-1 1 2 2 0l2 1q-3 0 0 1l4-2q1 2 2 0-2-2 0-3 3 1 3 5l1-5v3q4-2 7 1l1-1 1 1q2-3 3 0l4 1 1-1q2 4 3 3 0-4 3-4-3 2 1 4l2-2q2 4 3 3 0-4-3-4l2-1 4 4 2 1 4-3v3q6 1 8-1l3 1v-3q3 4 8 3l1-3 4 4 1-1q7 2 6-1h1q-1 2 3 1-3-1 1-4v3l5-2v3l3-1 1 1q1-3 3 0h4l-3-1 3-2q1 3 2 0h10q-2-2-6-1 2-3 6-1 1 2 2 0h3l-3-2 3-4 1 4v-6q3 1 4-2zM97 336q-3 4 1 3 1-2-1-3zm106 3v1h6q-2-3-6-1zM65 327q1 4 4 2-3 2 0 3l-5-4zm378 5q1 1-1 3-3-2 1-3z"/>
  <path fill="#25824c" stroke="#25824c" stroke-width="1.3" d="m143 335 2 1h-2zm145 0 2 4q-2 1 2 2 0-2 1 0l-1 1q2 2 1 3 1 3 5 1v3q-1-3-2 0v1q5-1 3 3 2 1 3-1 3 5 5 4l2 1 2-1 4 2q4-1 6 2 1-4 2-2-2 0 0 2l4 1 1-1 2 1q1-3 2 0l8 1 2 2h5l1 1 1-1 2 1q1-3 2 0l3-3 1 2q4-2 3 2h1q2-4 3-1-3 0 0 1l3 1q-7 4-19 3v-1h4q-1-3-5-2-1 3-7 2l-1-2h-8l-1-1q-7 1-8-1-3 4-4-1-7 1-8-3-1 3-3 0l-4-1v-3q-2 4-4-1-5 1-3-2-2-5-7-5l-1-9-2-1zm-135 1q2 1-1 3-3-2 1-3z"/>
  <path fill="#25824c" stroke="#25824c" stroke-width="1.3" d="m342 360 2 2h-1q-4-1-1-2zm-54 27v4h-2z"/>
  <path fill="#2c8d53" stroke="#2c8d53" stroke-width="1.3" d="M336 240v1l-6 7h-2zm-148 12 2 4-4-3zM35 282q8 0 10 5l4-2v2q6-1 7 1l2-1q0 3 3 1l1 3q0-3 4-3v2q-4-2-2 2 4 2 5-2v2q3 2 4-1 1 3 3 1l1 2q0-3 1 0 0 2 3 2v-1q-3-1 0-3l5 4v-1q-2-1 0-3 1 4 4 3l1 1q0-2 2 0-2 3 2 2v-3q2 3 3 0 3 0 4 3 0-3 4-2-1 4 3 3v-3q1 3 5 2v2h6l2-2v2q5-1 8 2l2-2v2l-2 1 2 1 2-1q1 3 2 0 8-1 11 3l1-3q0 4 7 3 1-3 8-2 1 3 2 2l-1 2h6l2-1 8-1q-3 2 1 4l3-2 1-2q3 1 1 4 3 1 4-2 0 3 4 2 1-3 3 0l5-2q1 3 3 0l2 2q0-3 4-2l2-2q0 2 1 1l-1-3q1-2 2 0 3-1 4 2-3 1 1 4v4l2 1v5q2 0 1 5-1 3-4 2 1 6-1 8-5 0-5 2h-10l-1 2 7 1h-6q-1-3-2 0-6 1-6-1l-1 1q-1-3-3 0h-2q2-1 1-3h-2q-3 3-7 3v-3l-1 3q-6-1-7 1l-4-4-1 2q1 2-3 1-1 2-2 1 2-1 1-2l-4 1q3 0 1 1l-4-2q-2 2-8 1l-2-1q-2 2-3 0l-3-2-1 3q-3-4-4-1-4 0-4-3l-1 3-1-2q-2 3-3 0-5 0-5-2-2 2-3 0l-3 2h-2l2-1q-1-3-5-1v-3q-2 1-1 5-3-1-1-4l-3 3q-3-3-4 1h-3q3-1 2-2-4 0-4 2 2 0 1 2-4 1-3-3h-2l-3-1q-1 2-5 1-3-1 0-1 1-4-3-3-2 1 0 3-1-3-4-3l-1 1q-3-4-4-1v3l-8-8h-3q2-4-1-3-8-10-17-18v-2l-5-6v-4q-4 1-3-3-3-1-1-5 2-1 1-3-4 0-1-1zm91 20v2q1 2 2-1-1-3-2-1zm33 4q-2 2 4 2 1-4-4-2zm59 23-3 4h3zm-75 6v1h2q0-3-2-1zm66 0v1h4q-2-3-4-1z"/>
  <path fill="#2c8d53" stroke="#2c8d53" stroke-width="1.3" d="M168 304q1 3 2 2-1 2-4 1zm125 6v1q-1 5 1 6l2-2v2q-3 0 0 2l2-2q0 3 3 4 4-1 2 3 2 3 7 1-1-4 3-2 0-3 1 0-3 1 1 2l4-1 3 1q0-2 1 0-1 3 4 2 0-3 1 0l-1 2h3q1-4 2-1-1 3 4 1 2 3 7 2 0-3 1 0-1 2 3 1 1-1-1-1l1-3 1 3 1-2 4 4q2-2 3 2-1-3-4 1h5q2-3 3 0 5-1 7 1-3 2 1 3 1-3 3 0l4 2 1-2 1 1 1-1 2 1q1-2 2 0l3 1 1-2v2q-2 0 0 2l6-2-3-1q3-4 4 0l1 3q0-3 2 0l1 2 1-1q2 3 3 0h2q0 3 4 1l2-2q1 4 10 1v-3l4 4q-5 0-6 4h-3l-3 3h-2v3q-2-3-3 0-4 0-4 2-5 0-6 3h-4l-4 3h-4l-2 1h-4l-1 1h-4q-1 3-5 1l-5-2q-2 2-3 1 1-4-3-2l-1 1-1-1-2 1-1-1-1 1-2-1q-1 2-2 0h-5l-2-2q-6 2-9-2l-1 1q-2-3-3 0-5 0-5-3-1 3-3 0-4-1-5 2 3 0 1 1l-4-1 3-2q-1-2-4-2-3 1 0 2-3-1-3-4l-1 2q-4-6-7-3v-3q-5 3-3-1 1-3 2 0 1-4-2-3l-4-1 1-1-4-4q4-3-1-4v-11q2-2 1-8 3-1 3-3-3-3 1-4zm68 27v2h3q0-3-3-2zm96-20q3 3-2 4h-1zm-9 10v1l-4 4h-1zm-224 2v4h-1zm214 7q1 1-2 3-2-2 2-3zm-360 1q3 2 2 3-4-1-2-3zm348 3q2-1 1 2-2 2 0 3-6-3-1-5zm4 0 2 1q-1 3-2 1z"/>
  <path fill="#2c8d53" stroke="#2c8d53" stroke-width="1.3" d="m401 341 2 3h-1q-2-3-4 0zm12 0q0 3 4 3h-3q-3-3-4 0zm-107 17q3 0 3 3-2 1-2-1-4 0-1-2zm41 9q4-1 5 2l-6 1q-3-1 1-3zm12 0q2 2 1 3-4-1-1-3z"/>
  <path fill="#5bb952" stroke="#5bb952" stroke-width="1.3" d="M222 346q5-1 2 10 4 1 2 9l-2 1v11l-1 1v11q3 0 1 2l-2 2q2 1 1 6-3 1-3-1-2 1-1 8h3q1 2-2 1-2 3-6 3l4 1h-4q1 4-1 3l-7 4h4q1 3-3 5 4 1-1 4-8 0-12 2 4 2-1 4h-4q2-5-3-4v2q3-2 2 2-2 2-2-1l-2-1q-4 0-4 5 2 0 1 1l-4-5-5-1q1 2-2 4-5-2-5 1-2-1 1-3 4 2 3-1t-1 0q-5 3-12 3 1 2 4 0l1 1-2 1q2 0 1 2-1-3-7-2-2 6-5 2 3-2 1-3-4 0-5 3l1 2q-1 4-4 0 2-2 3 0 1-4-3-2l-5 4 4 2-3 1q2-2-2-3l1-2q-1-4 4-2v-2q-8-1-9 4l3 2h-2q-4-3-4-7l-2 1q-3-2-4 2l4 1q-3 1 0 3-4 0-4 2l-3-2q-1 2-3 0l-2 2q4 1 2 3-2-4-5-2 4-2 3-3l-4 1-3-1q-2 1 2 2 2-1 1 3 2 0 1 1l-4-4-1 1 1 3q-1 3-4-3 3-1 2-3-3 0-4 2l-2 3q-2-2 0-2v-2q-1 2-5 1 1 4-1 3l-4 4h-2q3-2 2-3l-4-1-1-3 2-1q0 2 1 1 2-4-1-2v-2q4 2 1-4h-1q1 4-2 3l1-5-1-3q2-1 1-5l2-4v-5q2-6 6-7-3-1 0-3h1q-1-5 3-4v-2l2-2q0-4 3-5 0 3 1 1-1-5 3-3l3-2q-3-2 1-4l1 2 5-6q3-2 8-1v-3q-1 3-2 2-2-4 2-3l2-1q1 2 2 0l6-2 1-2q1 4 4-2 4 2 5-1l1 1q2-4 4-1l3 1h21q1-4 4-1 22-3 36-12l1-2 1 1 7-7zm-6 57q0 4 2 3 1-4-2-3zm-11 20q-3 4 1 2 1-1-1-2zm-16 4v2q1 2 2-1zm-15 2v2h3q0-3-3-2zm7 0-4 3q3 4 4 0zm-33 3q-1 1 1 3l3-2q-1-2-4-1zm-18 1v3q1 1 2-1zm-11 3v3q1 1 3-2zm3 3q-3 0-3 4 3 3 4 0zm-32 2q0 5 3 2 0-3-3-2zm0 4q-3 3 0 4 4-1 0-4zm198-96q4-1 2 4 2 3 6 1 0 3 2 4 7 6 19 8 0-2 1 0-1 3 4 1 0-2 1 0-1 4 5 2 2-3 4 1 6 1 7-1l3 2q6-1 9 2l1-2q8 2 13-1 0 3 6 1l5 4 2-1q2 1-1 3 1 2-1 1l-3-1-4 2h-1q4-2 3-4l-3 2-3-2q-2 2 2 4v2l-3-4q-7-2-8 2-1 3 4 2 1 4 4 2l-1 3h-6q2 4-1 3-4 1-1 2 4 0 5-2 1 2 5 2-4-1-5 2l-4-2q-1 4 3 3 2 5 9 6-3-1 1-4l3 2h-3l2 2q0-2 1 0v2q5-2 4 2 1 2 2-1l3-1q-4-3-1-4l2-2q2 2-1 3 0 4 4 4l3 1 4-1 1 1 1-1q2 4 3 3-1-4 4-3v-3h4q-3 3 1 4h3q-4-2-2-4 0 3 2 2l1-4q1 4 4 2-3 0-1 4-2-2-3 0l1 3-1 1q-3-2-4 2 4 1 5 5l3-1q-3-2-3-4h2q0 2 2 2 3-1 2-2-4 1-3-2l1-2q-2-2 0-3l3 3q-5 1 0 4 0-3 1 0l2 6 2 3q0 4 3 6v6l2 2q-2 2-1 8l1 2v10l-1 1q3 7-1 10 2 1 0 2 1 3-1 2-3 1 0 2 0 4-3 7-3-2 0-2l1-5q-2-2 0-4h-2q-2 3-6 2l3 5q0-3 1 0-2 4-5-1v-3l-1 3q-2-3-3 0-7-2-9 1 10-1 14 4-1 1-1-2-5-2-14-1v-2l-2 2q-2-1-1-4h3l-3-2-4 2-1-2h4q-4 0-6-3l-1 1q-3-4-4-1 0 3 3 4-2 1-2-1l-2 1q-2-3-6-1v-4l-1 2q-4 0-5-2-3 2-7 2-2-1-2-4-4-1-6 2 3 2 4 1 2 3-1 1l-1-1-8-1q-2 2-3 1 3-1 3-4t-3-3q-2 2 0 3l-4-5q-9 2-10-2l-2 3q3 0 2 1-3 0-3-2l1-3q0-3-2-3-3 2 0 3-4 1-3-1l-1-3q-3 3-4 0 1 1 4-1 1 4 2 2-1-5 3-4 1-1-1-1v-2l-2 2-1-2h-4q1 3-1 2l-5-2 2-2q0-2-2-2-2 2-3 1l1-3q-1-2-2 0 2-1 1-2l-3 1-4-7h-1q-1-2-5-2 1-3 4-2-6 0-7-2 3 1 4-2-1-2-4-1 1-4-1-2-3 3-4 2 3-1 1-2h-2l2-2q2 4 4-1v-3q-1 3-2 0h-3q4-1 3-5-3 0-4 3h-2q3-3 2-4 1 2 2 0h2l-4-4-2 2q-2-1-1-6 3-2 1-7l-2-5q1-9-2-15l2-1zm50 32-3 2h3q1-2 2 0 2-4-2-2zm13 0q-3 4 0 5v-1q2-3 0-4zm6 2v2h4q-1-3-4-2zm-18 2q-3 4 1 2 2-1-1-2zm16 0q0 4 1 2 1-4-1-2zm-7 1-1 4h1zm4 8q0 4 1 2 2-3-1-2zm-59 4-3 2h3zm71 2q-3 2-1 3h9l-1-1q-2-3-3 0-4 1-4-2zm32 6-3 2 4 2 1-3q-1 1-2-1zm9 0v1h2q-1-3-2-1zm-4 1-1 3h3zm-105 3v2q1 2 2-1zm98 0-1 2q1 3 3 2zm6 1q-3 1 1 1 1 3 2 0-1-2-3-1zm5 0v4q1 1 2-1 2-4-2-3zm-104 4-3 3h3zm112 0v3q1 1 2-2zm-91 24q1 1-1 4h2q1-6-1-4zm12 6q-3 0-3 4 1-3 4 0 1-3 5-1-5 0-6-3zm5 4q-3 1-1 4l4-1zm-5 1q-3 2 1 3h1q0-3-2-3zm15 6q0 4 2 2 1-4-2-2zm4 0q0 4 2 2 1-4-2-2zm2 4v2q-3 0 0 2l2-2q2-4-2-2zm35 1q0 5 3 1-1-2-3-1zm-10 1q0 6 2 2zm22 2q-4 5 1 4 2-3-1-4zm8 2q-3 4 1 3 2-1-1-3zm-8 3v1h3z"/>
  <path fill="#5bb952" stroke="#5bb952" stroke-width="1.3" d="M380 377q2-2 1 2-1 2-1-2zm-20 1 3 1h-3zm28 1q2 0 4 3l1 3q-1 2-3 1 3-1 0-3v-2q-2 4-4 2 3-1 2-4zm-21 3v3q-2 2-3 1z"/>
  <path fill="#5bb952" stroke="#5bb952" stroke-width="1.3" d="M368 386q1 1-1 3-3-2 1-3zm22 4 2 1q-3 0-4 3h-2zm-27 3 4 1 1-1q1 2 3 1 1 2-2 1-1-2-2 0l-3 1q-3-1 0-2-4 0-1-1zm14 2 3 1h-3zm9 3 2 4q-2 1-3-2zm3 0q4-2 3 2 2 0 1 2-3-3-4 0zm-14 1 2 1h-2zm-155 11v4h-1zm-5 5q1 1-1 3-3-2 1-3zm-2 6q2 2 1 3-4-1-1-3zm2 10v4h-1zm-42 4 3 2-3 2h-1q2-3 1-4zm24 1q2 1 1 3-4-2-1-3zm102 0 2 5h-2q-2-2 0-5zm-135 1q2 2 1 3-4-1-1-3zm13 3q3 1 1 3-4-2-1-3zm-49 1q3 2 2 3-4-1-2-3zm4 3v2q-1 3-2 2zm11 0 2 1h-2zm-41 4v4h-1zm-8 1v1q-3 2 0 3-4-1 0-4zm-9 4v5h-1q-2-4 1-5zm120 3q1 1-2 2-2-1 2-2zm133 1q2 0 2 3-1 1-1-2-4 0-1-1zm5 0q3 1 1 3-4-2-1-3zm-33 1q3 2 1 3-4-1-1-3zm3 4q2 2 1 3-4-1-1-3zm40 6q2 1-1 2-3-1 1-2zm11 0q1 1-1 2h-3zm11 4q2 2-3 3h-1zm15 0v3h-1zm3 0 3 2h-2q-4-1-1-2zm-71 2 9 11-10-10zm99 4q2 3-3 4-3-1 3-4zm-4 5q1 2-2 3-2-1 2-3zm-83 2q2 1 1 2-4-1-1-2zm79 2q2 3-3 4h-1zm-6 4q2 2-1 3-3-1 1-3zm-18 7q3 1 1 2h-5zm-253 2q3-1 4 2h-4zm237 0q7-1 8 2-1 2-8 0z"/>
  <path fill="#65ab56" stroke="#65ab56" stroke-width="1.3" d="m267 4 2 3h-1q-4-2-1-3zm-25 1 2 2h-2zm-61 28v1l-9 10h-2zm188 71v4h-1zm2 23v2q-2 3-3 1 0-3 3-3zm-227 10q3 1 1 3-4-2-1-3zm13 36 2 4h-3q-1-3 1-4zm312 0 3 1h-3zm-447 9q1 1-2 2-2-1 2-2zm326 2q1 2-1 3-3-1 1-3zm146 2q3 1 2 2-4-1-2-2zm-326 2q2 2 1 3-4-1-1-3zm175 3q3 3-3 4-2-1 3-4zm-169 5 6 7-7-5zm215 2q1 1-1 2-3-1 1-2zm-57 4v1l-4 4h-1zm-147 4q3 1 1 2-4-1-1-2zm179 9q1 1-1 2-3-1 1-2zm-5 4q1 1-2 2-2-1 2-2zm-202 2q3 2 2 3-4-1-2-3zm195 3q1 1-1 3-3-2 1-3zm-187 4q3 1 1 3-3-2-1-3zm77 3 2 1h-2zm102 0q3 2-2 3h-2zm-167 7 7 8-8-6zm149 10v2q-2 6-4 3zm-135 6q6 3 3 4-5-1-3-4zM23 269l1 4q-1 1-2-2zm190 16 1 3h-1q-3-2 0-3zm19 2v4h-1zM48 311q3 1 1 3-4-2-1-3zm7 8 11 13-13-12zm401 2q1 2-1 3-3-1 1-3zm-4 4v2l-5 5h-1zm-225 10v5h-1q-2-4 1-5zm-154 1q3 1 1 3-4-2-1-3zm367 0q2 1-1 3-3-2 1-3zm-301 31q0 3 4 3h-6zm88 10v6h-1q-2-5 1-6zm-113 5q1 1-2 3-2-2 2-3zm287 1q5 3 2 4l-3-2zm-294 4v2l-6 6h-2zm307 9q3 2 1 3-4-1-1-3zM82 435v6h-1q-1-5 1-6zm349 6q3 3 0 9h-1q-2-6 1-9zm-349 8v5h-1q-1-4 1-5zm150 7v5h-1q-1-4 1-5zm0 8q3 1 2 2-4-1-2-2zm86 9q3 1 1 2-4-1-1-2zm-228 5 1 4h-1q-3-3 0-4zm100 0q3 3-2 4h-2zm137 4q5 3 3 4-6-1-3-4zm94 0q1 1-2 3-2-2 2-3zm-240 4q1 1-1 3-3-2 1-3zm-79 5q3 2 1 3-4-1-1-3zm250 7q3 1 1 2-4-1-1-2z"/>
  <path fill="#5fbd55" stroke="#5fbd55" stroke-width="1.3" d="m288 345 1 4-1 1v20h-2v-24zm-66 4v1l-7 7h-1zm70 3q2 1 1 2-4-1-1-2zm5 4q2 1 1 2-4-1-1-2zm-87 2q1 2-1 3-3-1 1-3zm91 0 5 4h-1l-6-2zm-99 4 1 2-4 1v-1zm107 0q2 0 4 3h-2l-4-1zm-119 4 3 1h-3zm129 0 3 1h-3zm-134 1 3 2h-3zm139 0q3-1 4 2h-4zm-177 2q1 1-2 2-2-1 2-2zm30 0q4-2 5 1h-5zm155 0q4-2 6 1h-6zm35 0 2 2h-4zm-215 1h21v1h-21zm190 0h21v1h-11l-1 2q-3-3-9-2zm30 1q10 2 17 8l-1 3q1 1 4-3l2 3q11 7 19 17 0 4 4 5l-2 3q3-3 4 1-5 3-2 6-2-3-3 0l-3 1-2-4-2 3q3 1 0 2-2-1-2-5-3 5-4 1h-3q2-2 5-1-1-3-3-1l1-3 5 4h1q-2-3 0-4h-4l4-1q2 2 3 0v-3q-1 3-4 1-1-2-3 0l-2 2q-3-2 0-3-5-1-4 3l1 2-4 3 2 3q-2 1-3-2l1-2q-2-2 0-3l-2-4-4 1q2 0 1 2l-7-6q-4 2-1 3l1 1h-1l-3-1q-1 3-2 1 1-4-3-2l-1 1h-9l1-3q0 3 4 2v-2h-1l-6-4-2 2q-4-2-2-3l3 1q1-1-1-2h-3q1-4-1-3l-2 2q-1-3-2 0-4 0-4 2 1-1-1-4h-3l3-1q1 5 3 1 3 0 4-2 2 2 3 0 3 1 1-3h6v-1q-2-3-2 0-6-2-5 2-1-2-3 0l-4-1q-1-5 3-7-3 2 0 4l-1 2q-2 2 2 1 3-3 8-3-1-4-5-2 1-3-1-3 1 1 4-1 5 1 8-2 1 3 2 0l2 2q-3 0 0 1l4-1q0 2 2 1l1-3-1-1q-2 4-4-1-4 0-1-2zm8 6q0 4 1 2 1-4-1-2zm-20 1v1h3zm1 12v1h4q-1-2-4-1zm2 3-2 1 4 1h2l-4-2zm8 0-3 2h3zm6 2v1h3zm-8 1q-4 3 0 4v-2h3q-1-3-3-2zm11 2q0 4 1 2 1-4-1-2zm9 0v4q1 1 3-2 1-4-3-2zm21 0-1 4q2 4 4 2 1-5-3-6zm-38 1-3 3h3zm3 0v1h2zm26 1v3q2 1 4-1-2-3-4-2zm14 7q-2 4 2 3 1-2-2-3zm-191-30v12h-1v-11zm-102 2q1 3 2 2 2 4-5 1-1 3-3 1zm209 0q1 2-1 3-3-1 1-3zm7 2q4-2 2 2-1-2-2 0h-3z"/>
  <path fill="#5fbd55" stroke="#5fbd55" stroke-width="1.3" d="M348 381v1q-2 1 0 3-4-2 0-4zm-233 2v2l-6 6-3 2q-3-2 1-3h2zm224 2q1 2 3 1-2 3-4 1zm-50 1v5h-1q-2-4 1-5zm59 0v4h-1zm-13 4q1 1-1 3-3-2 1-3zm17 4q3-1 1 2-1 2-1-2zm-3 1q2 1-1 3h-2zm-250 4q2 1-1 3-3-2 1-3zm283 7q3 1 2 2-4-1-2-2zm-289 4q1 1-2 2-2-1 2-2zm328 0q0 4 2 6v2q-1 1-2-2-3-4 0-6zm-8 5 2 1q-2 2 0 3-2-1-2-4zm-2 1q2 2-1 3h-3zm14 3 1 5q-1 3-3 1l2-2q-2-3-3 0zm2 8v4h-1zm1 6v8h-1q-1-6 1-8zm0 20v5h-1q-1-4 1-5z"/>
  <path fill="#57b44e" stroke="#57b44e" stroke-width="1.3" d="M226 342q-3 2 0 4v7q-3-1-2-7l-1-1zm0 28v7h-2q-1-6 2-7zm62 7v4h-2zm-166 1q1 1-2 3-2-2 2-3zm271 1q3 2 1 3-4-1-1-3zm4 3q3 1 1 3-4-2-1-3zm-285 3q2 1-1 2-2-1 1-2zm289 0 13 14-14-13zM99 398q2 1-1 2-3-1 1-2zm316 2q3 2 2 3-4-1-2-3zm-118 25q1 2-1 3-3-1 1-3zm-212 2v4h-1zm343 1v4h-1zm-344 5v20h-2v-18zm127 7q3 1 2 3-4-2-2-3zm219 6v4h-2zm-225 4q2-1 1 3-1 1-1-3zm-6 6q2 2 3 1-3 1 0 3-3-4-5-2zm0 4v4q-1 1-2-2zm-5 5q0 3 4 3h-4l1 4q-1 1-2-2-2-4 1-5zm-24 1q2 2-1 3-3-1 1-3zm147 0q4-1 2 4-2 2 0 3l-2-1q2-2 0-3zm-190 2 1 4q-1 2-2 1 2-1 0-3zm39 0q2 1-1 2h-2z"/>
  <path fill="#57b44e" stroke="#57b44e" stroke-width="1.3" d="m177 468 1 2q0-2 2 0l1 2 3-2 1-2q1 2 3 0 3 0 3 2-1 2-1-1l-4 1 3 2q4 0 4 2l-9 9q-3-4-6 3l-1 3q-1-3-3 0l-1 2q-1-2-3 0l-2 2q2 0 1 1l-3 1q-3-5-6 2 3 0 1 1l-4-1q-2 1 0 2-4 1-2-1-2-3-2 0l-2 1q2 0 1 1-3-2-9-2-4 1-2 2 3-1 4 2h-4l-2-4h-2q-2 4-6 4h-5q1-4-3-3l-3 1v-1h2q-2-2-4-1l-3 1-4-1 3-1-3-2q1-4-4-2v1l2 1h-2l-4-4q3-1 0-2l-1-4-1 2q2 0 1 2-3-3-4 0 3-2 1-3-4 1-5-1 1-3 3 0 2 1 1-2l-1-4h-3q3-4 9-2 3 1 2 4h4l-3-2q-1-4 3-2 1 2 5 1 1 4-2 3v1q4 1 3-1 1-4 7-3 0 3 4 3 2-2 1-3l-4-1 7-4q-3 2 1 4l1-3q0 3 2 1l1-3v3q-3 2 0 3l-3-1q-4 1-1 2 3-1 4 2-3 1 1 2v-4q4 2 5-2h4q2 1-1 2l-3 2 4 1q0-4 3-5-3-2 0-3l3 4q0-3 1 0-3 0 0 1 3 2 1-1 2-3 4 1l2-1q-3-1 0-3 1 3 2 0h3q-3-2 1-3v2h5q-1-4-4-1 3-5 6 0h4l-3-1 3-2zm11 6q-3 3 0 4 3-1 0-4zm-27 3q-2 4 2 2 1-1-2-2zm-58 1-2 3h2zm13 1v3q3 1 4-1-1-3-4-2zm-17 2q0 4 2 2 1-4-2-2zm33 0q-2 4 2 2 1-1-2-2zm-16 1-2 3h2zm28 1v3q1 1 3-1zm-24 2q0 4 2 2 1-4-2-2zm14 0-2 1q3 0 2 3 3 1 2-2 0-2-2-2zm-19 1q0 4 1 3 2-4-1-3zm15 12-3 2h4q1-1-1-2z"/>
  <path fill="#57b44e" stroke="#57b44e" stroke-width="1.3" d="M160 469q3 1 1 3-4-2-1-3zm-61 3v1q-2 1 0 2-1-2-2 0h-3zm17 0q2 2 3 1-3 4-3-1zm27 1 2 1-5 1v-1zm-50 2q1 2-2 3-2-1 2-3zm233 0 1 3q0-3 1 0 2 3-1 1-4-1-1-4zm97 0q2 2-1 3-3-1 1-3z"/>
  <path fill="#57b44e" stroke="#57b44e" stroke-width="1.3" d="M332 479q2 2-1 3-3-1 1-3zm3 0 3 2q-3 0 0 1l2-1q0 4 4 5 3 0 4 3 0-3 1 0v2q4-1 3 3 1 1 3-1 4 1 5-3l1 3q2-4 3-2l-1 3h1l1-1q2 2 3 1-3 1 1 3v-3l3 1-5 4-4-2q-3 1-2 3-2-3-5-1 1-5-3-4-1-2-5-1-1 3-2 1 2-1 1-2l-3 1-1-1q3-2 1-3h-2q2-1 0-3l-2-4q-4-1-2 3 2 0 1 1-3-2-4 0 3-1 1-2h-2l2-2z"/>
  <path fill="#57b44e" stroke="#57b44e" stroke-width="1.3" d="M332 485q3 1 2 2-4-1-2-2zm85 0v1l-6 5h-1zm-64 2 2 2-3 1q-3-1 1-3zm-13 3q3 1 2 3-4-2-2-3zm29 0q3-1 2 3-2 1-2-3zm6 0q2-1 1 3-3-3-4 0zm32 3q2 1-1 2l-3 2q-2-2 2-3zm-32 2q2 2 1 3-3-3-4 0zm2 0 3 2q-2 2-3 1zm19 3 1 1-4 1v-1zm-28 2 3 2h-3zm16 0q4-1 5 2h-5z"/>
  <path fill="#59b650" stroke="#59b650" stroke-width="1.3" d="M292 350q5 3 2 4-5-1-2-4zm-66 15v5h-2q-1-4 2-5zm64 25v6q4 2 3 4h-3q4-2-1-4-1-5 1-6zm-70 8 3 5-4 4 1 1-1 3v7l-1 1v4q-3 0-2 5l-2 4-1 8-3 1 1 3q-4 2-4 8l-2-2q-3 2 1 4-5 3-3 6-1-3-2 0v4q-3-2-2-4-4 1-1 4 1 4-3 2-1-2-2 0-2 4 1 6l-6 6h-2q2-5-1-4v-1h1q-2-1 0-3l-1-2-1 2-3 2q3 0 1 1-2-1-2-4-2 3-3 1v-2l-1 2-3 2 3 1-6 1q3 3 4 1l-1 2q-3-3-4 0 3-2 1-3-5-1-6 1 2 3 4 2-2 5-4 2 2-2 0-4l-4 2q4 1 3 2l-4 2-4-4-2 1q0 3 3 4-1 1-3-3l-2 2q2 0 1 1l-3-3q-2 3-4 2v1l-4-3q-1 3-2 0-4-1-3 4-1-2-2 0-4 2-3-1 3 1 4-1-1-3-5-2 4-2-2-5l-2 1q2 0 1 2l-3-2q-2 2 2 3l1 1q-1 3-5 3-2-3-3 0-4-1-3 3 2 2 4 0 3-2 2 2l-2-1q-2 3-4 1l-1 3h-1q2-3 1-4h1l-2-1q2-2 1-3-4 1-4-1-1 2-2 0-6 1-4-2h-2v2q-4-2-2 2h-3q1 3-1 2l-6-6v-1q3-1 2-3-4 2-3-1-4-1-3-6l-2-3 1-3-1-1v-7q-3-2-1-8h1l1 2q0-3 1 0-2 0 0 1 3 1 2-3l1-1q1 3 3 1-3 0 0 2 2 1 1-3h4v-2l3 3q0-2 2-3 3-2 2 2-2 4 1 3l1-3q-2-1 0-2h2q-3-3 0-4-4-2-3 2h-1l-2-2q2 1 4-2h2q1 3 5 3v-3q4 3 0 4l-4-1q-3 1 1 3l4 1q1-3 3 0l1-1 1-3-2-4q1-3 2 0l3 1q0-2 4-2l3 4q0-3 1 0l-1 2q1 2 2-1 2-4 8-3 0 3 4 2 1-2-1-2 0-4 2-4 2 2-1 3-1 3 3 1l2-1q-2 3 2 4 1-4 8-3-4-2-2-4h7q-3-2 1-4v3h3q-3-1 0-3 2 2 1 4-3-1-4 2h5q3-2 2-4h1q-3-2 0-3 1 3 7 3 0-3 1 0l1 1q2-3 3 0l3 1v-2h-3q1-3 4-2-1-4 2-2 2 5 4 1h4q2-3 7-1l-3-2 2-2q1 2 2 0-2-3 2-4 0 2 1 1 1-4-3-2v-2h3q1-2 4-2-1-4 4-3v-1h-4q1-3 5-2l-4-4 1-1q3-1 2 3h1q-1-7 1-8zm-30 31q-4 6 3 4 4-1 0-4l-2 3zm-16 2v1h3zm0 5q-4 1-1 3l3-2zm-51 3q-3 1 0 2-1 3 3 2-3-2 0-3zm13 0q-1 1 1 2l3-1q-1-3-4-1zm7 5v1h2q0-2-2-1zm-34 1q0 4 1 3 1-4-1-3zm-7 3-1 4h1zm86 20v1h2q-1-3-2-1zm-53 4-1 3h1zm54 0-3 2q3 4 5-1zm-46 1v1h2q0-2-2-1zm-11 1q-2 4 2 3 1-2-2-3zm17 1q-2 0-2 4 1 2 2-1zm-51 2-4 2h3q-2 2 1 3l3-1-3-2 3-1q1 3 2 0-1-3-5-1zm8 0q-1 4 3 2 1 3 2 0l1 2q3 1 2-3-5 1-8-1zm35 0q-2 1 2 2l2-1q-1-3-4-1zm19 0-3 2h3zm-42 1v1l4 2h1q-1-4-5-3zm174-76 2 1q0-3 2 0l-2 1q5 2 2 4-2 3 2 2-2 1 0 4l-2 4h2q1-4 3-2 1 3-3 2v2q4-1 7 3h-2q-2-3-4 1 4-1 7 1 0-2 1 0-1 3-2 0l-4 2q5 1 8 5 0 3 2 4l3-1q1 2 3 1l-2 3q3 1 4-2v2q-2 1 0 2l-2 2q2 2 6 2 1-4-1-2h-1q2-3 1-4h1v4q5-2 4 2h1l2-2q0 2 2 3 2-2 3 0 4-1 5 2l-5 1q3 1 0 3l3 1 1-4 4 4q-1-3-3 0l-2 1-4-2-2 2 3 2q8-3 11 1 0-3 1 0l-1 3q1 1 2-2h1q-2-1 0-2h2q-2 4 2 2v-2q3-2 2 2-2 3-4 2 1 2-2 4h4q3-2 2-4 4-2 2 2h6v3l4 1q1-2 5-2l3 1v-3q2 3 1 4 2 2 1-1 1-3 5-3 2 2-1 3-1-3-3 0-1 4 4 3 2-3 3 0h1l-1-3 1-1 3 2q1-2 3 0 5 3 4-1h1l1 1q0-2 2 0-4 2-2 3l3-1 1-4q3 1 1 4l-2 1 4 1-4 2q2 2 9 0 1-3 3 0l1-3q0 3 3 4v-1l-2-4q4 1 6-2h2q3 2 0 4l2 3h-3q0 5-4 8 3 0 1 1-1-3-2 0-3 1-3 5-4 0-5 4v2l-2-2-4 4q-2 4-9 3l-2 2q-3-3-4-1l-3 1q-1-2-3 0v2q-2-3-9-2-1 3-2 0-6 2-4-2h2q-1-4-4-1 3-3 0-4-1 2-2 1v-3q-2 3-3 2v-3l-3 3q-4 0-5 2h4v3q-1-3-5-1l-3-2q1-2 4-1 1-4-3-3v-4q-2 3-3 2l-2 2h-2q-3-2-7-2 3-2 1-3-6-1-9-5l1-3q-1-3-2 0v-3q-3 4-4-1-4 1-3-1-4-3-1-4 0 3 1 1 2-5-1-4-1 3-4 2v-3l-5-7v-2q-4 1-3-3l-4-5q3-2 0-3 0-6-4-9l-1-7-1-1q3-3-2-4 2-5-1-5 3-1 0-3 0-5-3-5 6-3 0-5zm4 8-3 2h3zm32 36v4l4 2 3-2q-1-4-4-1 1-4-3-3zm0 4q-2 4 2 3 1-1-2-3zm29 12-4 3h6q1-1-2-3zm4 2-2 2h2zm31 4q-2 1 1 2l3-1q-2-3-4-1zm5 2q-1 3 1 4l2-2q-2-3-3-2zm-7 2-1 3h1zm11 0-1 2h11v-1h-9zm-66 7v3q1 1 3-1-2-3-3-2zm5 2-6 4h2q0 2 2 1-2-4 2-3zm3 4-1 2q2 2 0 3h2l2-3zm26 5q0 4 2 3 1-4-2-3zm6 0q0 4 1 3 1-4-1-3zm-6 4v3q2 1 3-2-1-2-3-1zm8 1v3q1 1 3-1z"/>
  <path fill="#59b650" stroke="#59b650" stroke-width="1.3" d="M176 425q2 0 2 3-1 1-1-1-4 0-1-2zm5 0q1 4 4 3l-1 1q-6-1-3-4zm129 3q3 0 3 3-2 1-2-2-4 0-1-1zm-175 3q2 1 1 2l-1-1-4 4h-1q-2-4 2-3zm13 0q0 2 4 2l-3 2q-4-3-1-4zm169 0q1 1-2 2-2-1 2-2zm-195 1q2 1 1 3-4-2-1-3zm13 3q1 1-1 2-3-1 1-2zm-48 1v5l-2 2h2v2l-3-1v-4q3 1 3-4zm12 1q2 2-1 3-3-1 1-3zm-9 4 3 2q-3 3-3-2zm261 9q1 2-2 3v1l-1-1zm12 8q1 3 2 2-2 4-2-2zm26 2q0 2 4 2l-1 2-4-3zm-21 1q3 1 1 3-4-2-1-3zm42 5q3 2 1 3l-2 1q-3-1 0-1zm-232 7q2 1-1 2-3-1 1-2zm6 8v1l-4 4h-2zm-60 2q3 2 2 3-4-1-2-3zm20 0 3 2q-2 2-3 1zm-42 2 3 5q-3 1 0 3l-7-6 1-1q0 3 2 1zm32 0q2 0 2 2 1 3-2 2v-3l-3 1v-1zm36 0q2 1-1 2-3-1 1-2zm7 1q1 1-1 3-3-2 1-3zm-4 3q3 2-3 4h-2zm-61 2 3 4q-3 2 0 3-6-1-9-4 4 0 6-3zm0 2q-2 4 2 2 1-1-2-2zm52 0v2l-3 2q-2-2 3-4zm-24 2v3l-1 2q-4-1-4 2h-3q-1-3-5-2 3-5 5 0h3q1-2 4-2zm224 0v3q3-1 1 2-1 2-1-1-4 1-3-1zm-246 3q2-1 4 1h-4zm25 0q5-1 4 2h-7z"/>
  <path fill="#10613e" stroke="#10613e" stroke-width="1.3" d="M252 267h9v2h-9zm-7 3q2 1-1 3h-1l-7 6v2l-1-2q4-6 10-9zm23 0q5 3 9 9 4 3 3 12h-2q0-14-8-18-5-2-2-3zm-33 12v3l-1 1v25q2 1 0 3l1 9-1 2 1 2v15l1 2q-2 0 0 1 6 1 8-1 0 2 1 1-1-4 3-3v-1l-4 1-1-1q2-1 1-2h-2l2-4 1 4 4-2q2 3 3 0-1-2-5-1 4 0 5-3v3l3 1q-3 0-4 3h4q1-3 4-3l-3-1q3-1 0-3l-1-2 2-2q0 3 2 2-2-4 2-3 2 3-1 4l1 1q-2 2 0 3l2 1 1-5 1 5h3l-1-4q3 2 2-1h1l2 3q-3 0 0 1l2 1v-2q-2-2-2-6 8 3 5-5l-1-1 1-2q-3-1 0-2-1-7 1-8l-1-4q4 1 3-3-2-2-3 0 3-2 1-6 3-2 3 1v22l-1 3q2 1 0 3v137q-3 9-11 14-6 4-18 3l-13-7v-1q-4-4-6-9V286Zm0 68q-3 4 1 3 2-1-1-3zm0 11q-3 1-1 5h1zM48 310q3 1 1 2-4-1-1-2zm8 9q5 2 2 4l-3-3zm5 5 5 7-6-6zm227 0v7h-2q-1-6 2-7zm-62 5v8h-2q-1-6 2-8z"/>
  <path fill="#10613e" stroke="#10613e" stroke-width="1.3" d="M244 329q3-1 4 2h-4zm20 0q4 0 4 3h-1l-4-1zm-190 7q3 1 2 3-4-2-2-3zm4 3 3 3q-5-1-3-3zm162 1v2h-2zm-156 2q2 2 1 3-4-1-1-3zm3 3q3 1 2 3-4-2-2-3zm123 171h95l4 6q1 7-3 9h-97l-4-2-2-6 4-5zm5 2v1h4q-1-3-4-1z"/>
  <path fill="#176d43" stroke="#176d43" stroke-width="1.3" d="m251 269 4 1q1-3 8-1 5 1 9 6-2 3 2 2l3 5v4l1 1q-1 4 2 5v6q-3 0-2 5 3 0 2 4-4-1-3 3h3q-3 1 0 2-2-2-3 0 1 5-1 8l1 1q-3 2 0 3v5h-5v3q1 3 2 1l2-2 1 4h-3q-1 4 3 2v2h-1l-7-6h-2l1 4h-3l-1-5q-3 1-1 5l-3-2 1-2q-2-1 0-2 2-4-2-3v3l-3-2q-3 2 0 3l1 1q0-2 2 0-4 2-2 3l2 1q-3 0-4 3 4 1 2 2l-6-3-2 2 3 1q1-2 3 2-2-3-3 0l-3-3-1 1q-4-1-3 3-1-3-2 0h-8q3-1 0-3v-15l-1-3q2-1 1-4-3-1-1-6 2-2 0-3v-25q2-9 9-13 2 0 4-3 1 4 4-1zm-7 60v2h4q-1-3-4-2zm20 0-1 2 4 1h1q-1-3-4-3zm-12 4q-1 3-5 3h5zm-8 2-2 4h2zm3 2q-3 2 0 3-2-3-4 1l1 1q0-2 4-1l1-2q0-3-2-2zm-7 3-2 2h2zM27 274l1 4q-1 1-2-1zm4 9q2 2 1 3-4-1-1-3zm444 13q1 2-2 3-2-1 2-3zm-434 4q3 0 3 6h-1q0-4-3-4zm427 6q1 1-1 2-3-1 1-2zm-4 5q3 3-3 4-2-1 3-4zm-413 1q5 3 2 4-5-1-2-4zm406 7v1l-11 12h-2zm-169 12v4h-2zm152 4q3 2-2 4-3-2 2-4z"/>
  <path fill="#176d43" stroke="#176d43" stroke-width="1.3" d="M272 337q2 2 1 3-4-1-1-3zm-8 2q1 1-1 2v1l-2-1zm24 0v5h-2q-1-4 2-5zm146 1q1 1-2 2-2-1 2-2zm-148 5v17h-1v-16zm140 0q1 1-1 3-3-2 1-3zm-204 1v2l-9 9h-2l-5 4h-1v-1q10-4 17-14zm200 2q1 1-1 2-3-1 1-2zm-183 1q1 1-3 4 3 0 2 1l-4-1 1-3q1 4 4-1zm53 0 4 5-6-4zm-193 3q3 1 2 2-4-1-2-2zm6 2 2 3h-1q-4-1-1-3zm194 2q3 1 2 2-4-1-2-2zm104 1 2 1-4 2v-2zm-202 4 1 1-4 2v-2zm34 0v5h-1q-2-4 1-5zm-100 4q4-1 2 2-1 2-1-1-4 0-1-1zm18 0q4-1 3 2l-7 2-2-2-3 2v-2q1-2 8-1zm29 0q2 2 3 1 1 4-4 1zm7 0 2 1h-2zm191 0 2 1h-2zm-221 1h19l2 3q-2 1-2-2-2 3-8 2l-1-2h-10zm168 0 3 1h-3zm48 0 2 1h-2zm-40 1q3-1 4 2h-4zm32 0q2-1 4 2h-4zM157 369h11v1h-11zm81 100q2 1 1 3-4-2-1-3zm-23 49q3-2 4 1h-4zm-9 7 3 4-4-2z"/>
</svg>
