<svg xmlns:ns0="http://www.w3.org/2000/svg" version="1.1">
  <path d="M0 0 C7.28421548 -0.02312916 14.5684231 -0.04091801 21.85266781 -0.05181217 C25.23471813 -0.05703975 28.6167434 -0.06413511 31.9987793 -0.07543945 C35.88329777 -0.08834267 39.76780597 -0.09322924 43.65234375 -0.09765625 C44.87211411 -0.10281754 46.09188446 -0.10797882 47.34861755 -0.11329651 C49.03024742 -0.11340981 49.03024742 -0.11340981 50.74584961 -0.11352539 C51.73846298 -0.115746 52.73107635 -0.11796661 53.75376892 -0.12025452 C56 0 56 0 57 1 C58.40672856 1.2499559 59.8235023 1.44388386 61.2421875 1.61328125 C62.13510498 1.72494629 63.02802246 1.83661133 63.94799805 1.95166016 C64.91390869 2.0707373 65.87981934 2.18981445 66.875 2.3125 C78.27132712 3.78413991 90.06103373 5.35367791 101 9 C102.09248047 9.36303223 102.09248047 9.36303223 103.20703125 9.73339844 C133.44166208 19.89848984 163.25482835 33.28015182 187 55 C188.43485207 56.25303862 189.87202223 57.5034327 191.3125 58.75 C193.15011263 60.35592035 194.96896535 61.97083835 196.74755859 63.64208984 C201.8384201 68.33271363 207.2093464 71.65001256 213.3125 74.875 C214.20517578 75.3596875 215.09785156 75.844375 216.01757812 76.34375 C220.8774759 78.96789486 220.8774759 78.96789486 226 81 C227.33985245 81.9912483 228.67161297 82.99343869 230 84 C232.43462963 85.55914816 234.90909784 87.0534361 237.375 88.5625 C255.17445336 99.59985665 272.23311563 112.25759804 287.48046875 126.62890625 C289.5878214 128.61210479 291.73014175 130.50582914 293.9375 132.375 C302.58913592 139.88635754 310.62895364 148.23880016 318 157 C318.7940625 157.90492188 319.588125 158.80984375 320.40625 159.7421875 C327.7739722 168.19423125 334.31271153 177.15503779 340.75415039 186.3269043 C342.03570609 188.13225732 342.03570609 188.13225732 344 190 C345.02960384 191.6906563 346.02396539 193.40286202 347 195.125 C349.00265397 198.61934273 351.01857119 202.06931309 353.2265625 205.4375 C364.65666153 222.9181306 373.36091184 241.73623901 381 261.125 C381.26745026 261.80134491 381.53490051 262.47768982 381.81045532 263.17453003 C384.74635827 270.64037156 387.45490176 278.15512268 389.875 285.8046875 C390.19815186 286.81971848 390.19815186 286.81971848 390.52783203 287.85525513 C391.40240911 290.68943375 392 293.0143817 392 296 C392.66 296.33 393.32 296.66 394 297 C394.54711914 299.09082031 394.54711914 299.09082031 394.97265625 301.828125 C395.63194845 305.81861167 396.34449504 309.77756143 397.18359375 313.734375 C400.11847623 327.76200052 402.44018895 341.75255629 404 356 C404.09571289 356.77786865 404.19142578 357.5557373 404.29003906 358.35717773 C405.38462008 368.29962194 405.2439352 378.32273915 405.25 388.3125 C405.25101212 389.8108992 405.25101212 389.8108992 405.25204468 391.33956909 C405.2337982 408.40889009 404.45510995 425.08487237 402 442 C401.83371094 443.15628906 401.66742187 444.31257813 401.49609375 445.50390625 C393.57110669 498.51326412 372.58740725 550.58925073 341 594 C340.5153125 594.66870117 340.030625 595.33740234 339.53125 596.02636719 C330.39381951 608.57248756 320.6040649 620.38434416 309.97070312 631.68823242 C307.46823049 634.35581052 305.16414787 637.05422303 303 640 C303.56058105 640.2902002 304.12116211 640.58040039 304.69873047 640.87939453 C327.04640102 652.46156096 349.26824033 664.23963219 371.03076172 676.89355469 C372.99230292 677.99567528 374.97999958 679.0097727 377 680 C379 681 379 681 381.15234375 682.7421875 C384.5052524 685.40059792 387.99794335 687.76264879 391.5625 690.125 C392.22185547 690.56714844 392.88121094 691.00929688 393.56054688 691.46484375 C397.24088531 693.92556906 397.24088531 693.92556906 401.13671875 696.01171875 C403.90831691 697.48176976 405.96133965 699.55250684 408.25 701.6875 C411.48770242 704.69370723 414.74363804 707.65503883 418.125 710.5 C440.61878636 730.25064168 452.43656079 758.91484287 459.875 787.25 C460.08355621 788.03316589 460.29211243 788.81633179 460.50698853 789.62322998 C463.77738239 801.90683118 466.81555398 814.24247801 469.6875 826.625 C469.86593445 827.38510376 470.0443689 828.14520752 470.22821045 828.92834473 C470.72775917 831.06743647 471.21566004 833.20880672 471.69921875 835.3515625 C471.97596436 836.56666504 472.25270996 837.78176758 472.5378418 839.03369141 C473 842 473 842 472 845 C468.37 845.33 464.74 845.66 461 846 C461 846.33 461 846.66 461 847 C442.33333333 847 423.66666667 847 405 847 C403.906875 847.020625 402.81375 847.04125 401.6875 847.0625 C398 847 398 847 395.8125 846.4375 C393.57762134 845.89804653 392.16921601 846.32679503 390 847 C368.33333333 847 346.66666667 847 325 847 C324.401875 847.20625 323.80375 847.4125 323.1875 847.625 C320.45835222 848.09285391 319.32122308 847.40931402 317 846 C317 846.33 317 846.66 317 847 C312 847 307 847 302 847 C302 846.67 302 846.34 302 846 C301.236875 846 300.47375 846 299.6875 846 C297.79166667 846 295.89583333 846 294 846 C293.67 846.33 293.34 846.66 293 847 C289.27775401 847.29386153 288.22213757 847.14809171 285 845 C285 845.66 285 846.32 285 847 C282.6875 847.625 282.6875 847.625 280 848 C279.01 847.34 278.02 846.68 277 846 C277 846.33 277 846.66 277 847 C235 847 193 847 151 847 C151 846.34 151 845.68 151 845 C150.34 845.66 149.68 846.32 149 847 C145.4375 847.125 145.4375 847.125 142 847 C141.67 847 141.34 847 141 847 C127.66666667 847 114.33333333 847 101 847 C99.845 847.185625 98.69 847.37125 97.5 847.5625 C96.345 847.706875 95.19 847.85125 94 848 C93.67 847.67 93.34 847.34 93 847 C90.6670386 846.95833998 88.3329614 846.95833998 86 847 C77 847 77 847 74.02832031 846.98413086 C70.52798856 846.96704024 67.0277012 846.95454723 63.52734375 846.94506836 C62.01626892 846.94004656 60.50519894 846.93322787 58.99414062 846.92456055 C56.81378997 846.91237848 54.63350357 846.90674587 52.453125 846.90234375 C51.14504883 846.89710693 49.83697266 846.89187012 48.48925781 846.88647461 C45.49893283 846.98376688 42.90560212 847.35746454 40 848 C37.359375 847.87890625 37.359375 847.87890625 34.75 847.5625 C33.44289063 847.40974609 33.44289063 847.40974609 32.109375 847.25390625 C31.41328125 847.17011719 30.7171875 847.08632813 30 847 C29.67 847 29.34 847 29 847 C5.33333333 847 -18.33333333 847 -42 847 C-42 846.67 -42 846.34 -42 846 C-42.763125 846 -43.52625 846 -44.3125 846 C-46.20833333 846 -48.10416667 846 -50 846 C-50.33 846.33 -50.66 846.66 -51 847 C-53.3329614 847.04166002 -55.6670386 847.04166002 -58 847 C-58.33 847 -58.66 847 -59 847 C-61.66666667 847 -64.33333333 847 -67 847 C-68.093125 847.020625 -69.18625 847.04125 -70.3125 847.0625 C-74 847 -74 847 -76.1875 846.4375 C-78.42237866 845.89804653 -79.83078399 846.32679503 -82 847 C-143.66666667 847 -205.33333333 847 -267 847 C-267.680625 847.165 -268.36125 847.33 -269.0625 847.5 C-274.13343539 848.36313794 -278.56578394 848.95614404 -283 846 C-283 846.33 -283 846.66 -283 847 C-293.33333333 847 -303.66666667 847 -314 847 C-314 846.67 -314 846.34 -314 846 C-314.763125 846 -315.52625 846 -316.3125 846 C-318.20833333 846 -320.10416667 846 -322 846 C-322.33 846.33 -322.66 846.66 -323 847 C-325.3329614 847.04166002 -327.6670386 847.04166002 -330 847 C-330.33 847 -330.66 847 -331 847 C-336 847 -341 847 -346 847 C-346 846.67 -346 846.34 -346 846 C-346.71027344 845.95101562 -347.42054688 845.90203125 -348.15234375 845.8515625 C-349.07144531 845.77679687 -349.99054688 845.70203125 -350.9375 845.625 C-352.31228516 845.52058594 -352.31228516 845.52058594 -353.71484375 845.4140625 C-354.46894531 845.27742187 -355.22304688 845.14078125 -356 845 C-357.39584321 842.20831358 -356.6080351 840.8823446 -355.77734375 837.8984375 C-355.3443396 836.33730225 -355.3443396 836.33730225 -354.90258789 834.74462891 C-354.58410889 833.63265137 -354.26562988 832.52067383 -353.9375 831.375 C-353.61966553 830.24884277 -353.30183105 829.12268555 -352.97436523 827.96240234 C-350.89604702 820.73504172 -348.59537991 813.65873754 -345.77905273 806.68505859 C-344.66878457 803.92593381 -344 802.01430434 -344 799 C-343.34 799 -342.68 799 -342 799 C-341.83636963 798.46777832 -341.67273926 797.93555664 -341.50415039 797.38720703 C-336.50697118 781.71863221 -328.65473666 767.25675937 -319 754 C-318.12794922 752.78183594 -318.12794922 752.78183594 -317.23828125 751.5390625 C-298.6810163 726.64626642 -274.28213778 711.64368376 -247 697.875 C-245.84213989 697.28900024 -245.84213989 697.28900024 -244.66088867 696.69116211 C-239.24614081 694 -239.24614081 694 -237 694 C-236.67 693.34 -236.34 692.68 -236 692 C-234.15869141 691.13183594 -234.15869141 691.13183594 -231.7265625 690.234375 C-225.48311273 687.83664117 -219.44236902 685.05883061 -213.375 682.25 C-212.27542969 681.74339844 -211.17585937 681.23679687 -210.04296875 680.71484375 C-207.36094577 679.47878099 -204.67998974 678.24046337 -202 677 C-201.53159478 673.03887935 -201.53159478 673.03887935 -203.8359375 671.140625 C-205.09277344 670.20476562 -205.09277344 670.20476562 -206.375 669.25 C-207.72851562 668.21746094 -207.72851562 668.21746094 -209.109375 667.1640625 C-210.06328125 666.44992187 -211.0171875 665.73578125 -212 665 C-213.8818259 663.55048546 -215.75720657 662.09255198 -217.625 660.625 C-218.88183594 659.65433594 -218.88183594 659.65433594 -220.1640625 658.6640625 C-220.76992187 658.11492188 -221.37578125 657.56578125 -222 657 C-222 656.34 -222 655.68 -222 655 C-222.57129639 654.7539502 -223.14259277 654.50790039 -223.73120117 654.25439453 C-226.37992243 652.78994496 -228.16685594 651.0756157 -230.30078125 648.9296875 C-231.51991211 647.70765625 -231.51991211 647.70765625 -232.76367188 646.4609375 C-233.60478516 645.60757813 -234.44589844 644.75421875 -235.3125 643.875 C-236.14201172 643.04484375 -236.97152344 642.2146875 -237.82617188 641.359375 C-242.7519049 636.39865255 -247.46391337 631.31787292 -252 626 C-252.88896941 624.97885881 -253.77826819 623.95800422 -254.66796875 622.9375 C-260.4037491 616.2502026 -265.81456799 609.39646736 -271.02807617 602.29296875 C-271.50349854 601.64714844 -271.9789209 601.00132812 -272.46875 600.3359375 C-272.88576172 599.76407715 -273.30277344 599.1922168 -273.73242188 598.60302734 C-275.05229965 596.93385988 -276.47023772 595.47731038 -278 594 C-278.66 593.34 -279.32 592.68 -280 592 C-280 591.34 -280 590.68 -280 590 C-280.99 588.515 -280.99 588.515 -282 587 C-284 584 -284 584 -284 582 C-284.99 581.67 -285.98 581.34 -287 581 C-288.1875 578.4375 -288.1875 578.4375 -289 576 C-289.33 576 -289.66 576 -290 576 C-290.66 576 -291.32 576 -292 576 C-292.144375 574.845 -292.28875 573.69 -292.4375 572.5 C-293.65601634 567.01241591 -296.36914722 562.53212255 -299.17724609 557.74169922 C-302.60627218 551.83896359 -305.63296848 545.78966165 -308.5625 539.625 C-309.22475586 538.24199707 -309.22475586 538.24199707 -309.90039062 536.83105469 C-313 530.25978426 -313 530.25978426 -313 528 C-314.32 527.67 -315.64 527.34 -317 527 C-317 526.01 -317 525.02 -317 524 C-317.7425 523.13375 -317.7425 523.13375 -318.5 522.25 C-320.59289278 519.11066083 -320.06142217 516.74675218 -320 513 C-320.53627817 509.96592168 -321.24173346 506.98567452 -322 504 C-322.99 504 -323.98 504 -325 504 C-325.10957031 503.26136719 -325.21914063 502.52273438 -325.33203125 501.76171875 C-326.31306777 495.48468023 -327.58473074 489.46069773 -329.4140625 483.375 C-330 481 -330 481 -330 477 C-330.99 477.33 -331.98 477.66 -333 478 C-334 475 -334 475 -333.44921875 471.94140625 C-332.87950698 466.9428047 -333.76221961 462.81740734 -334.8125 457.9375 C-335.19102656 456.0655526 -335.56732598 454.19315349 -335.94140625 452.3203125 C-336.12461426 451.4118457 -336.30782227 450.50337891 -336.49658203 449.56738281 C-338.22896412 440.73240219 -339.37402096 432.01806098 -339 423 C-339.99 422.67 -340.98 422.34 -342 422 C-341.67 421.67 -341.34 421.34 -341 421 C-340.76572222 418.98405418 -340.58663876 416.961526 -340.4375 414.9375 C-340.35371094 413.83277344 -340.26992188 412.72804688 -340.18359375 411.58984375 C-340.12300781 410.73519531 -340.06242187 409.88054687 -340 409 C-340.66 408.67 -341.32 408.34 -342 408 C-341.36939036 379.39441874 -340.10879629 351.22483496 -335 323 C-334.71479492 321.42025391 -334.71479492 321.42025391 -334.42382812 319.80859375 C-327.65033996 283.60929636 -314.28759178 247.94588228 -296 216 C-295.55188965 215.21608887 -295.1037793 214.43217773 -294.64208984 213.62451172 C-282.98595076 193.40081456 -269.47719663 174.73508396 -254.25 157.0625 C-253.73123291 156.45970215 -253.21246582 155.8569043 -252.67797852 155.23583984 C-249.45617993 151.54077404 -246.0981841 148.03930943 -242.58618164 144.61865234 C-241.00552018 143.00563318 -239.59646688 141.32608731 -238.1875 139.5625 C-237.465625 138.716875 -236.74375 137.87125 -236 137 C-235.34 137 -234.68 137 -234 137 C-234 136.34 -234 135.68 -234 135 C-232.671875 133.66015625 -232.671875 133.66015625 -230.75 132.0625 C-226.49492205 128.45213083 -222.3884562 124.70654074 -218.30175781 120.90844727 C-215.29813567 118.13383884 -212.20327717 115.53938553 -209 113 C-208.34 112.34 -207.68 111.68 -207 111 C-205.01065205 109.48370294 -202.99210795 108.0110546 -200.97265625 106.53515625 C-199.00290884 105.07824437 -199.00290884 105.07824437 -197.49609375 103.43359375 C-195.78653577 101.79545333 -194.11965948 101.04686805 -192 100 C-189.37165823 98.40196821 -186.81517004 96.69718244 -184.25 95 C-183.55261719 94.54882812 -182.85523438 94.09765625 -182.13671875 93.6328125 C-180.38756397 92.47583732 -178.68876351 91.24346766 -177 90 C-177 89.34 -177 88.68 -177 88 C-176.30648437 87.91363281 -175.61296875 87.82726562 -174.8984375 87.73828125 C-171.29645122 86.82079418 -168.75266142 85.18964906 -165.625 83.1875 C-164.47837214 82.46143741 -163.33124051 81.73616975 -162.18359375 81.01171875 C-161.13300781 80.34785156 -160.08242188 79.68398437 -159 79 C-156.68321992 77.63253469 -154.3491824 76.31117157 -152 75 C-152 74.01 -152 73.02 -152 72 C-150.66775391 72.12568359 -150.66775391 72.12568359 -149.30859375 72.25390625 C-145.17028638 71.93632658 -144.00527124 70.79442054 -141.0625 67.9375 C-140.19625 67.11121094 -139.33 66.28492188 -138.4375 65.43359375 C-136.46737717 63.46662817 -134.5098181 61.48944758 -132.5625 59.5 C-120.28987147 47.08466648 -105.33938371 37.22833478 -89.99267578 29.06152344 C-88.70307584 28.37453734 -87.41728838 27.68032535 -86.13623047 26.97753906 C-74.47269454 20.58954851 -62.16491529 16.23750224 -49.60864258 11.92626953 C-47.04298607 11.01526337 -44.52579553 10.01535564 -42 9 C-39.3632791 8.12109303 -36.95821864 7.58197603 -34.23046875 7.1015625 C-32.76359619 6.84101074 -32.76359619 6.84101074 -31.26708984 6.57519531 C-29.64988037 6.29047363 -29.64988037 6.29047363 -28 6 C-25.60019278 5.57069043 -23.20045603 5.14098674 -20.80078125 4.7109375 C-18.30471941 4.26544615 -15.80862526 3.82013587 -13.3125 3.375 C-12.02666016 3.14554687 -10.74082031 2.91609375 -9.41601562 2.6796875 C-6.27737217 2.11963216 -3.13869978 1.55973959 0 1 C0 0.67 0 0.34 0 0 Z M-332 473 C-331 476 -331 476 -331 476 Z M-325 498 C-324 500 -324 500 -324 500 Z M-324 501 C-323 503 -323 503 -323 503 Z M-319 515 C-318.67 516.65 -318.34 518.3 -318 520 C-317.67 519.34 -317.34 518.68 -317 518 C-317.66 517.01 -318.32 516.02 -319 515 Z M-315 525 C-314 527 -314 527 -314 527 Z M-5 845 C-1 846 -1 846 -1 846 Z " fill="var(--ink)" transform="translate(472,88)" />
  <path d="M0 0 C2.64 0.33 5.28 0.66 8 1 C7.5875 1.63164062 7.175 2.26328125 6.75 2.9140625 C-12.53613545 32.79035268 -20.96931495 59.94794276 -15.390625 95.69140625 C-14.19253928 105.83919228 -16.36442476 116.24558937 -17.89526367 126.27783203 C-19.80903791 138.9031738 -20.26347272 151.44161485 -20.5625 164.1875 C-20.60579049 165.91993014 -20.64940774 167.65235214 -20.69335938 169.38476562 C-20.79933871 173.58975951 -20.90090133 177.79483857 -21 182 C-27.057368 184.93016437 -33.17782448 187.50269812 -39.53125 189.71875 C-40.18029297 189.94675293 -40.82933594 190.17475586 -41.49804688 190.40966797 C-44.18196611 191.34983142 -46.86695021 192.28563314 -49.56054688 193.19775391 C-51.55662486 193.87659168 -53.54401299 194.57701966 -55.53125 195.28125 C-57.28791992 195.88549805 -57.28791992 195.88549805 -59.08007812 196.50195312 C-62.44162238 198.22657148 -63.45652018 199.60036862 -65 203 C-65.71985285 207.22623287 -65.4194197 210.37087045 -63 214 C-61.906875 214.268125 -60.81375 214.53625 -59.6875 214.8125 C-54.92274888 216.34691138 -53.81282027 217.94622961 -51 222 C-49.901097 225.29670901 -49.57738863 228.29565959 -49.1875 231.75 C-46.93688825 249.34705073 -41.05170303 270.66789047 -26.30175781 282.08935547 C-20.801442 286.39310811 -17.39719714 289.55502766 -16.41015625 296.640625 C-16.24529552 299.17437148 -16.13237739 301.71185748 -16.0625 304.25 C-15.9823463 305.65554878 -15.89599194 307.06075547 -15.80395508 308.46557617 C-15.61109613 311.4462316 -15.43924593 314.42702314 -15.28027344 317.40966797 C-14.84361715 325.067431 -14.00707513 332.68798278 -13.1875 340.3125 C-13.10448639 341.09363159 -13.02147278 341.87476318 -12.9359436 342.67956543 C-8.30053087 386.11499687 -2.99495722 428.95656612 18 468 C18.31018066 468.59087402 18.62036133 469.18174805 18.93994141 469.79052734 C25.56312434 482.36091527 33.93314891 493.76012302 43.5 504.25 C44.82451172 505.7040625 44.82451172 505.7040625 46.17578125 507.1875 C48.22630941 509.22951974 50.06761102 510.85820609 52.35546875 512.5625 C56.80720062 516.04736028 60.39097099 519.0270594 61.56835938 524.77441406 C62.39064494 533.55741723 63.24193949 544.45814496 58 552 C53.81469101 556.05256598 48.5441642 558.71388389 43.5 561.5625 C42.57364746 562.0877124 41.64729492 562.6129248 40.69287109 563.15405273 C16.84046596 576.59245343 -7.82970125 588.20918835 -32.79443359 599.40551758 C-33.44240402 599.6962616 -34.09037445 599.98700562 -34.75798035 600.28656006 C-36.52658477 601.07952687 -38.29586305 601.87099023 -40.06518555 602.66235352 C-42.915856 603.91191384 -42.915856 603.91191384 -45.21020508 605.24194336 C-47 606 -47 606 -50 605 C-50 603.68 -50 602.36 -50 601 C-51.85733338 599.02528961 -51.85733338 599.02528961 -54.375 597.25 C-55.72851562 596.21746094 -55.72851562 596.21746094 -57.109375 595.1640625 C-58.06328125 594.44992187 -59.0171875 593.73578125 -60 593 C-61.8818259 591.55048546 -63.75720657 590.09255198 -65.625 588.625 C-66.88183594 587.65433594 -66.88183594 587.65433594 -68.1640625 586.6640625 C-68.76992187 586.11492188 -69.37578125 585.56578125 -70 585 C-70 584.34 -70 583.68 -70 583 C-70.57129639 582.7539502 -71.14259277 582.50790039 -71.73120117 582.25439453 C-74.37992243 580.78994496 -76.16685594 579.0756157 -78.30078125 576.9296875 C-79.51991211 575.70765625 -79.51991211 575.70765625 -80.76367188 574.4609375 C-81.60478516 573.60757813 -82.44589844 572.75421875 -83.3125 571.875 C-84.14201172 571.04484375 -84.97152344 570.2146875 -85.82617188 569.359375 C-90.7519049 564.39865255 -95.46391337 559.31787292 -100 554 C-100.88896941 552.97885881 -101.77826819 551.95800422 -102.66796875 550.9375 C-108.4037491 544.2502026 -113.81456799 537.39646736 -119.02807617 530.29296875 C-119.50349854 529.64714844 -119.9789209 529.00132812 -120.46875 528.3359375 C-120.88576172 527.76407715 -121.30277344 527.1922168 -121.73242188 526.60302734 C-123.05229965 524.93385988 -124.47023772 523.47731038 -126 522 C-126.66 521.34 -127.32 520.68 -128 520 C-128 519.34 -128 518.68 -128 518 C-128.66 517.01 -129.32 516.02 -130 515 C-132 512 -132 512 -132 510 C-132.99 509.67 -133.98 509.34 -135 509 C-136.1875 506.4375 -136.1875 506.4375 -137 504 C-137.33 504 -137.66 504 -138 504 C-138.66 504 -139.32 504 -140 504 C-140.144375 502.845 -140.28875 501.69 -140.4375 500.5 C-141.65601634 495.01241591 -144.36914722 490.53212255 -147.17724609 485.74169922 C-150.60627218 479.83896359 -153.63296848 473.78966165 -156.5625 467.625 C-157.22475586 466.24199707 -157.22475586 466.24199707 -157.90039062 464.83105469 C-161 458.25978426 -161 458.25978426 -161 456 C-162.32 455.67 -163.64 455.34 -165 455 C-165 454.01 -165 453.02 -165 452 C-165.495 451.4225 -165.99 450.845 -166.5 450.25 C-168.59289278 447.11066083 -168.06142217 444.74675218 -168 441 C-168.53627817 437.96592168 -169.24173346 434.98567452 -170 432 C-170.99 432 -171.98 432 -173 432 C-173.10957031 431.26136719 -173.21914062 430.52273438 -173.33203125 429.76171875 C-174.31306777 423.48468023 -175.58473074 417.46069773 -177.4140625 411.375 C-178 409 -178 409 -178 405 C-178.99 405.33 -179.98 405.66 -181 406 C-182 403 -182 403 -181.44921875 399.94140625 C-180.87950698 394.9428047 -181.76221961 390.81740734 -182.8125 385.9375 C-183.19102656 384.0655526 -183.56732598 382.19315349 -183.94140625 380.3203125 C-184.12461426 379.4118457 -184.30782227 378.50337891 -184.49658203 377.56738281 C-186.22896412 368.73240219 -187.37402096 360.01806098 -187 351 C-187.99 350.67 -188.98 350.34 -190 350 C-189.67 349.67 -189.34 349.34 -189 349 C-188.76572222 346.98405418 -188.58663876 344.961526 -188.4375 342.9375 C-188.31181641 341.28041016 -188.31181641 341.28041016 -188.18359375 339.58984375 C-188.12300781 338.73519531 -188.06242188 337.88054687 -188 337 C-188.66 336.67 -189.32 336.34 -190 336 C-189.36939036 307.39441874 -188.10879629 279.22483496 -183 251 C-182.80986328 249.94683594 -182.61972656 248.89367187 -182.42382812 247.80859375 C-175.65033996 211.60929636 -162.28759178 175.94588228 -144 144 C-143.55188965 143.21608887 -143.1037793 142.43217773 -142.64208984 141.62451172 C-130.98595076 121.40081456 -117.47719663 102.73508396 -102.25 85.0625 C-101.73123291 84.45970215 -101.21246582 83.8569043 -100.67797852 83.23583984 C-97.45617993 79.54077404 -94.0981841 76.03930943 -90.58618164 72.61865234 C-89.00552018 71.00563318 -87.59646688 69.32608731 -86.1875 67.5625 C-85.465625 66.716875 -84.74375 65.87125 -84 65 C-83.34 65 -82.68 65 -82 65 C-82 64.34 -82 63.68 -82 63 C-80.671875 61.66015625 -80.671875 61.66015625 -78.75 60.0625 C-74.49492205 56.45213083 -70.3884562 52.70654074 -66.30175781 48.90844727 C-63.29813567 46.13383884 -60.20327717 43.53938553 -57 41 C-56.01 40.01 -56.01 40.01 -55 39 C-53.01065205 37.48370294 -50.99210795 36.0110546 -48.97265625 34.53515625 C-47.00290884 33.07824437 -47.00290884 33.07824437 -45.49609375 31.43359375 C-43.78653577 29.79545333 -42.11965948 29.04686805 -40 28 C-37.37165823 26.40196821 -34.81517004 24.69718244 -32.25 23 C-31.55261719 22.54882812 -30.85523438 22.09765625 -30.13671875 21.6328125 C-28.38756397 20.47583732 -26.68876351 19.24346766 -25 18 C-25 17.34 -25 16.68 -25 16 C-23.95972656 15.87044922 -23.95972656 15.87044922 -22.8984375 15.73828125 C-19.29645122 14.82079418 -16.75266142 13.18964906 -13.625 11.1875 C-12.47837214 10.46143741 -11.33124051 9.73616975 -10.18359375 9.01171875 C-9.13300781 8.34785156 -8.08242188 7.68398437 -7 7 C-4.68321992 5.63253469 -2.3491824 4.31117157 0 3 C0 2.01 0 1.02 0 0 Z M-180 401 C-179 404 -179 404 -179 404 Z M-173 426 C-172 428 -172 428 -172 428 Z M-172 429 C-171 431 -171 431 -171 431 Z M-167 443 C-166.67 444.65 -166.34 446.3 -166 448 C-165.67 447.34 -165.34 446.68 -165 446 C-165.66 445.01 -166.32 444.02 -167 443 Z M-163 453 C-162 455 -162 455 -162 455 Z " fill="var(--halo)" transform="translate(320,160)" />
  <path d="M0 0 C3.53869044 0.57028162 6.21718842 1.46670887 9.3203125 3.25 C10.10277344 3.6934375 10.88523437 4.136875 11.69140625 4.59375 C12.49449219 5.0578125 13.29757812 5.521875 14.125 6 C15.73050152 6.91888799 17.33722314 7.83564837 18.9453125 8.75 C19.65187988 9.15734375 20.35844727 9.5646875 21.08642578 9.984375 C23.12300284 11.13290515 23.12300284 11.13290515 26 12 C27.33985245 12.9912483 28.67161297 13.99343869 30 15 C32.43462963 16.55914816 34.90909784 18.0534361 37.375 19.5625 C55.17445336 30.59985665 72.23311563 43.25759804 87.48046875 57.62890625 C89.5878214 59.61210479 91.73014175 61.50582914 93.9375 63.375 C102.58913592 70.88635754 110.62895364 79.23880016 118 88 C118.7940625 88.90492188 119.588125 89.80984375 120.40625 90.7421875 C127.7739722 99.19423125 134.31271153 108.15503779 140.75415039 117.3269043 C142.03570609 119.13225732 142.03570609 119.13225732 144 121 C145.02960384 122.6906563 146.02396539 124.40286202 147 126.125 C149.00265397 129.61934273 151.01857119 133.06931309 153.2265625 136.4375 C164.65666153 153.9181306 173.36091184 172.73623901 181 192.125 C181.26745026 192.80134491 181.53490051 193.47768982 181.81045532 194.17453003 C184.74635827 201.64037156 187.45490176 209.15512268 189.875 216.8046875 C190.09043457 217.48137482 190.30586914 218.15806213 190.52783203 218.85525513 C191.40240911 221.68943375 192 224.0143817 192 227 C192.66 227.33 193.32 227.66 194 228 C194.54711914 230.09082031 194.54711914 230.09082031 194.97265625 232.828125 C195.63194845 236.81861167 196.34449504 240.77756143 197.18359375 244.734375 C200.11847623 258.76200052 202.44018895 272.75255629 204 287 C204.09571289 287.77786865 204.19142578 288.5557373 204.29003906 289.35717773 C205.38462008 299.29962194 205.2439352 309.32273915 205.25 319.3125 C205.25067474 320.3114328 205.25134949 321.3103656 205.25204468 322.33956909 C205.2337982 339.40889009 204.45510995 356.08487237 202 373 C201.83371094 374.15628906 201.66742187 375.31257813 201.49609375 376.50390625 C193.57110669 429.51326412 172.58740725 481.58925073 141 525 C140.27296875 526.00305176 140.27296875 526.00305176 139.53125 527.02636719 C130.39381951 539.57248756 120.6040649 551.38434416 109.97070312 562.68823242 C107.94823561 564.84413614 106.03876468 566.94450434 104.34375 569.37109375 C103.9003125 569.90863281 103.456875 570.44617188 103 571 C99.91462213 571 98.82647179 570.60573042 96.140625 569.26953125 C95.36654297 568.88547119 94.59246094 568.50141113 93.79492188 568.10571289 C92.95509766 567.67895264 92.11527344 567.25219238 91.25 566.8125 C89.92838867 566.1462561 89.92838867 566.1462561 88.58007812 565.46655273 C79.79580047 560.98580058 71.234772 556.13069575 62.6796875 551.23046875 C58.19754817 548.6663071 53.67812049 546.1828222 49.13354492 543.73144531 C13.39370163 524.40584246 13.39370163 524.40584246 6.875 504.578125 C0.97272422 483.31257257 1.66031632 460.93572385 1.74205017 439.05073166 C1.75008044 436.78985347 1.75505508 434.52898498 1.75939941 432.26809692 C1.79764675 414.98582034 1.86877716 397.70090689 2.75 380.4375 C2.78057495 379.73170807 2.8111499 379.02591614 2.84265137 378.29873657 C2.93059317 376.38422985 3.05009987 374.47124651 3.171875 372.55859375 C3.2347168 371.54079834 3.29755859 370.52300293 3.36230469 369.47436523 C4 367 4 367 5.85571289 365.2512207 C8.72544557 363.57669264 11.6815895 362.1653242 14.6875 360.75 C24.81648107 356.04376348 24.81648107 356.04376348 32 348 C32.66 348 33.32 348 34 348 C34.268125 347.40703125 34.53625 346.8140625 34.8125 346.203125 C36.01026288 343.98095965 37.24810161 342.55243392 39 340.75 C62.8257252 313.86590014 77.13074401 270.60404503 75 235 C73.51232463 224.34027885 69.72808873 214.35444949 61.203125 207.47265625 C57.67351785 205.11332665 53.94601995 203.52127529 50 202 C50.61260595 192.10993866 51.56665472 182.29132244 52.67126465 172.44668579 C53.46929171 165.30020894 54.23101378 158.14964986 55 151 C55.12584473 149.83533203 55.25168945 148.67066406 55.38134766 147.47070312 C59.18890548 111.46159557 59.35894806 74.41814933 36 44.625 C34.67969755 43.07215895 33.34647387 41.53020325 32 40 C31.34902344 39.21753906 30.69804688 38.43507812 30.02734375 37.62890625 C26.1047744 33.04646542 21.97450499 29.09071335 17.32128906 25.27661133 C10.03812065 19.28844479 5.33683883 14.04004146 2 5 C1.33372811 3.33317548 0.66718714 1.66645838 0 0 Z " fill="var(--halo)" transform="translate(672,157)" />
  <path d="M0 0 C6.29698713 4.22967438 10.27558415 10.06813333 12.0703125 17.390625 C17.46929703 47.82126507 3.64651608 85.14102811 -13.18945312 110.27099609 C-24.51602089 126.27686291 -37.84080991 137.03005937 -56.9296875 142.390625 C-58.73405277 171.51816672 -60.23804398 200.57608449 -60.2421875 229.765625 C-60.24541016 230.86900208 -60.24863281 231.97237915 -60.25195312 233.10919189 C-60.76508391 267.63106398 -60.76508391 267.63106398 -50.43164062 299.95043945 C-45.25318515 309.21362489 -45.25318515 309.21362489 -46.62109375 314.41015625 C-47.94751769 317.93792545 -49.73317235 321.14731976 -51.69287109 324.359375 C-52.9417649 326.41045997 -54.09072584 328.49597017 -55.23046875 330.609375 C-64.717797 347.85673507 -77.062682 362.5236195 -90.9296875 376.390625 C-91.61546875 377.1228125 -92.30125 377.855 -93.0078125 378.609375 C-100.55624879 386.53794837 -109.09316615 392.97150733 -117.9296875 399.390625 C-118.53377441 399.8340625 -119.13786133 400.2775 -119.76025391 400.734375 C-154.32926627 425.85406608 -197.13447625 439.92082407 -239.8046875 439.703125 C-240.92287872 439.70039078 -240.92287872 439.70039078 -242.06365967 439.69760132 C-252.96002751 439.65278013 -263.35308243 439.24481222 -273.9296875 436.390625 C-274.57921387 436.22433594 -275.22874023 436.05804687 -275.89794922 435.88671875 C-295.11482607 430.88931278 -316.35685949 421.03120409 -327.06054688 403.54296875 C-328.2134648 401.51494445 -329.30390709 399.46698281 -330.3671875 397.390625 C-330.6974292 396.75060547 -331.0276709 396.11058594 -331.36791992 395.45117188 C-335.13343555 387.63829361 -336.32017253 379.37621372 -336.3046875 370.765625 C-336.30525146 369.92604248 -336.30581543 369.08645996 -336.30639648 368.22143555 C-336.14418179 357.84412698 -335.02847882 347.52203291 -333.9921875 337.203125 C-333.85535553 335.83531891 -333.85535553 335.83531891 -333.71575928 334.43988037 C-333.45094674 331.8250992 -333.17866568 329.21124415 -332.90234375 326.59765625 C-332.81997971 325.79960068 -332.73761566 325.0015451 -332.65275574 324.17930603 C-332.04731306 318.62587612 -332.04731306 318.62587612 -330.9296875 316.390625 C-329.7540625 316.7825 -328.5784375 317.174375 -327.3671875 317.578125 C-326.5421875 317.85011719 -325.7171875 318.12210938 -324.8671875 318.40234375 C-322.75570306 319.11272349 -320.65235198 319.84744986 -318.5546875 320.59765625 C-317.3378125 321.02433594 -316.1209375 321.45101563 -314.8671875 321.890625 C-313.74183594 322.2928125 -312.61648438 322.695 -311.45703125 323.109375 C-298.78983653 326.97534699 -286.15885066 327.96854945 -272.9921875 327.890625 C-272.18942383 327.88886261 -271.38666016 327.88710022 -270.55957031 327.88528442 C-256.23022559 327.81558848 -242.77004056 326.27459872 -228.9296875 322.390625 C-228.04539062 322.14957031 -227.16109375 321.90851563 -226.25 321.66015625 C-200.28457239 314.37904969 -175.97546054 301.13611153 -154.9296875 284.390625 C-153.98738281 283.65328125 -153.04507813 282.9159375 -152.07421875 282.15625 C-144.51330646 276.01362009 -137.58295945 269.25418646 -130.6796875 262.390625 C-129.75687988 261.47708252 -128.83407227 260.56354004 -127.88330078 259.62231445 C-121.80884787 253.52004711 -116.24627013 247.16140642 -110.9296875 240.390625 C-110.16809326 239.42600342 -110.16809326 239.42600342 -109.39111328 238.44189453 C-70.33626884 188.21618416 -64.43766146 126.20516357 -58.6796875 64.828125 C-58.59651276 63.94700043 -58.51333801 63.06587585 -58.42764282 62.15805054 C-58.18794216 59.58894266 -57.95547573 57.01930895 -57.7265625 54.44921875 C-57.65124802 53.62242111 -57.57593353 52.79562347 -57.49833679 51.94377136 C-57.12500974 47.60728334 -56.8815674 43.3022366 -56.81054688 38.94970703 C-56.78953918 38.05566666 -56.76853149 37.16162628 -56.74688721 36.24049377 C-56.71367873 34.54885608 -56.70397085 32.85651048 -56.72332764 31.16465759 C-56.5569307 23.46296424 -52.67817789 19.41157444 -47.68359375 13.921875 C-35.49287135 2.62209666 -16.51162061 -8.4037639 0 0 Z " fill="var(--skin)" transform="translate(723.9296875,372.609375)" />
  <path d="M0 0 C5.17670947 1.13679355 10.38567543 1.93478672 15.64599609 2.58105469 C16.99951172 2.74734375 16.99951172 2.74734375 18.38037109 2.91699219 C41.71534583 5.30205867 64.78982189 2.32034963 87.64599609 -2.41894531 C87.50162109 -1.53335938 87.35724609 -0.64777344 87.20849609 0.26464844 C81.67725212 37.17801968 93.64703276 67.84533393 110.70849609 100.14355469 C122.65517711 122.8111172 137.64599609 152.25287932 137.64599609 178.58105469 C130.43853822 178.20909069 123.23117535 177.83533754 116.02392292 177.45941257 C112.67590356 177.28483632 109.32784926 177.11101042 105.97973633 176.93823242 C102.1145024 176.73866676 98.24938256 176.53700234 94.38427734 176.33496094 C93.20456863 176.27450089 92.02485992 176.21404083 90.80940247 176.15174866 C67.1666829 174.90788958 67.1666829 174.90788958 60.77099609 172.39355469 C59.62115234 171.95011719 58.47130859 171.50667969 57.28662109 171.04980469 C56.08521484 170.56511719 54.88380859 170.08042969 53.64599609 169.58105469 C52.28710446 169.04856951 50.92771681 168.51734862 49.56787109 167.98730469 C38.78188759 163.75188331 38.78188759 163.75188331 34.64599609 161.58105469 C38.40744242 159.70033152 43.00653702 161.7907924 46.95849609 162.70605469 C47.95075195 162.93252686 48.94300781 163.15899902 49.96533203 163.39233398 C56.70448624 164.9848956 63.00250332 166.94998774 69.38037109 169.66308594 C71.5475127 170.7062279 71.5475127 170.7062279 73.64599609 170.58105469 C74.02089282 167.28899285 73.8786891 165.91608953 71.95849609 163.15136719 C69.54600779 160.60032382 67.12688061 158.06583384 64.64599609 155.58105469 C64.00017578 154.92363281 63.35435547 154.26621094 62.68896484 153.58886719 C53.39880319 144.78766141 41.81904539 141.35088504 29.64599609 138.58105469 C28.5135144 138.31627319 28.5135144 138.31627319 27.3581543 138.04614258 C22.2345073 137.16752636 17.03456471 137.35549194 11.84814453 137.34082031 C9.81157469 137.33124547 7.77607391 137.30024851 5.73974609 137.26855469 C-16.5634581 137.08785234 -40.73819196 143.43934347 -57.19775391 159.12402344 C-62.70523874 165.3997625 -65.52329966 172.8481979 -68.35400391 180.58105469 C-70.05943359 180.14792969 -70.05943359 180.14792969 -71.79931641 179.70605469 C-85.54112324 176.34425452 -97.13721984 174.90491589 -110.80712891 179.70605469 C-113.35400391 180.58105469 -113.35400391 180.58105469 -115.35400391 180.58105469 C-115.75490234 179.68644531 -116.15580078 178.79183594 -116.56884766 177.87011719 C-123.86794021 162.12749028 -133.6662291 152.82642393 -149.94775391 146.65917969 C-158.13897407 144.06654578 -165.63543598 143.24139423 -174.22900391 143.26855469 C-175.746875 143.24438477 -175.746875 143.24438477 -177.29541016 143.21972656 C-183.61034288 143.21568371 -189.05260241 144.04061226 -195.08105469 145.93579102 C-197.35400391 146.58105469 -197.35400391 146.58105469 -200.35400391 146.58105469 C-201.04899588 107.91811656 -198.03906301 67.40898799 -179.35400391 32.58105469 C-178.58958984 32.72542969 -177.82517578 32.86980469 -177.03759766 33.01855469 C-143.39154311 38.84891793 -114.68079613 27.47427233 -85.78320312 11.66796875 C-56.39953535 -4.35474946 -32.71109167 -7.38549577 0 0 Z " fill="var(--skin)" transform="translate(511.35400390625,181.4189453125)" />
  <path d="M0 0 C2.9903098 2.7073285 3.17180072 2.99118008 3.4296875 6.7421875 C3.43924834 8.43361685 3.42492132 10.12529762 3.390625 11.81640625 C3.75086254 32.75167698 12.11570775 53.37372403 27.265625 68.19140625 C44.10145138 81.89728448 65.67620044 85.55421639 86.765625 83.50390625 C101.08898449 81.12655007 114.74104555 73.58691779 123.671875 62.0390625 C134.36857108 46.06439137 139.38217365 28.19813472 139.17504883 9.10302734 C139.23484086 3.08879493 139.23484086 3.08879493 141.98828125 0.0546875 C147.95795593 -3.27859077 152.38598713 -3.76747978 159.12109375 -3.65234375 C160.03980759 -3.64424683 160.95852142 -3.6361499 161.90507507 -3.62780762 C164.85893825 -3.59702474 167.81208117 -3.549084 170.765625 -3.49609375 C172.21464203 -3.47144043 172.21464203 -3.47144043 173.69293213 -3.44628906 C180.48876164 -3.32546165 187.28334352 -3.16484489 194.078125 -2.99609375 C196.1022081 -2.94768858 198.12629665 -2.89951058 200.15039062 -2.8515625 C205.02220179 -2.7356755 209.89393023 -2.61677082 214.765625 -2.49609375 C214.92761724 8.30788894 214.54033378 18.931648 213.515625 29.69140625 C213.4487146 30.40590942 213.3818042 31.1204126 213.31286621 31.85656738 C209.46958264 72.34500814 196.59942734 107.34306506 168.765625 137.50390625 C168.01925781 138.32117188 167.27289062 139.1384375 166.50390625 139.98046875 C151.17153247 156.02136257 131.6589755 167.10982407 111.765625 176.50390625 C110.81171875 176.95894531 109.8578125 177.41398438 108.875 177.8828125 C103.21270688 180.50390625 103.21270688 180.50390625 99.765625 180.50390625 C99.34152344 179.59769531 98.91742187 178.69148437 98.48046875 177.7578125 C94.9392929 170.33859483 91.29805512 163.66476656 85.765625 157.50390625 C85.03730469 156.68277344 84.30898438 155.86164063 83.55859375 155.015625 C73.21869985 144.00756349 61.19957616 138.49551499 47.30859375 133.43652344 C43.56465591 132.06345868 39.84064399 130.639226 36.11523438 129.21679688 C34.24256045 128.50186927 32.36888854 127.78954932 30.49414062 127.08007812 C29.64529297 126.75845703 28.79644531 126.43683594 27.921875 126.10546875 C27.16712891 125.82010254 26.41238281 125.53473633 25.63476562 125.24072266 C23.765625 124.50390625 23.765625 124.50390625 21.765625 123.50390625 C21.765625 122.84390625 21.765625 122.18390625 21.765625 121.50390625 C22.29671875 121.27316406 22.8278125 121.04242188 23.375 120.8046875 C28.70100625 118.34578315 32.06885467 115.89744691 34.765625 110.50390625 C35.46350698 104.1558644 34.58658682 98.25295501 31.765625 92.50390625 C29.2020418 89.93164471 29.2020418 89.93164471 25.765625 89.50390625 C25.82363281 90.67308594 25.88164062 91.84226562 25.94140625 93.046875 C25.98831949 94.59501205 26.03381798 96.14319242 26.078125 97.69140625 C26.12001953 98.46033203 26.16191406 99.22925781 26.20507812 100.02148438 C26.2945842 104.19246761 26.06770905 106.05219709 23.68359375 109.6171875 C20.765625 111.50390625 20.765625 111.50390625 17.53515625 111.4453125 C16.29121094 111.13464844 15.04726563 110.82398438 13.765625 110.50390625 C12.27024646 110.17640461 10.77410591 109.85236892 9.27734375 109.53125 C8.1008728 109.26441406 8.1008728 109.26441406 6.90063477 108.9921875 C-4.07739195 106.18663241 -4.07739195 106.18663241 -15.234375 106.50390625 C-18.59945612 108.63786013 -19.0903297 109.87970995 -19.984375 113.75390625 C-20.066875 114.66140625 -20.149375 115.56890625 -20.234375 116.50390625 C-25.91885691 115.96584282 -30.79416983 114.87737754 -36.109375 112.81640625 C-36.80119873 112.55093994 -37.49302246 112.28547363 -38.20581055 112.01196289 C-54.04976856 105.74712784 -54.04976856 105.74712784 -57.234375 98.50390625 C-57.89119072 92.10824608 -56.48447193 87.60971527 -54.046875 81.75390625 C-53.31449647 79.90752077 -52.58561005 78.05974801 -51.859375 76.2109375 C-51.44816406 75.1688916 -51.03695313 74.1268457 -50.61328125 73.05322266 C-36.44137267 39.35569188 -36.44137267 39.35569188 -30.66796875 3.71875 C-30.234375 1.50390625 -30.234375 1.50390625 -28.37890625 -0.23046875 C-19.45166953 -5.4990019 -9.06953812 -4.19520906 0 0 Z " fill="var(--skin)" transform="translate(434.234375,378.49609375)" />
  <path d="M0 0 C7.15539471 6.35882486 13.41546976 16.3833939 14.16113281 26.09960938 C14.51620801 45.07548836 11.6322311 62.08080519 -0.875 77.125 C-10.26280941 86.75163822 -22.74635006 91.04713801 -36 91.25 C-52.22425477 91.04742701 -67.06894139 85.77960934 -78.8203125 74.375 C-90.58676109 61.55421014 -95.7945383 46.30242226 -95.3125 29.078125 C-94.61457384 16.73646415 -89.48272806 8.09858059 -80.75 -0.1875 C-58.71270934 -18.98184488 -22.35679591 -16.98558441 0 0 Z " fill="var(--skin)" transform="translate(546,361)" />
  <path d="M0 0 C2.42871056 0.01001977 4.85742151 0.01994724 7.28613281 0.02978516 C70.72532836 0.41158482 70.72532836 0.41158482 79.25 8.3125 C85.20519905 17.64871528 85.26802392 27.21030448 83.125 37.875 C80.37565243 48.655 74.74241774 56.74255496 65.20703125 62.55859375 C58.42109282 66.14188425 51.91701787 67.92099348 44.25 67.3125 C39.05280878 65.51347227 36.92150559 63.06184327 34.25 58.3125 C33.08847098 54.82791293 33.11729676 52.04559492 33.125 48.375 C33.12242187 47.14910156 33.11984375 45.92320312 33.1171875 44.66015625 C33.22509977 41.94013215 33.55866298 39.89820935 34.25 37.3125 C34.31548492 35.73038427 34.33578381 34.14579919 34.3125 32.5625 C34.29166667 31.14583333 34.27083333 29.72916667 34.25 28.3125 C26.921878 27.48666767 19.61826504 27.02379592 12.25 26.75 C11.14019775 26.7082666 10.03039551 26.6665332 8.88696289 26.62353516 C0.48718544 26.33451817 -7.90793645 26.20681411 -16.3125 26.1875 C-18.00729492 26.18061157 -18.00729492 26.18061157 -19.73632812 26.17358398 C-20.77337891 26.17559814 -21.81042969 26.1776123 -22.87890625 26.1796875 C-23.79744385 26.18081543 -24.71598145 26.18194336 -25.66235352 26.18310547 C-27.73874719 26.08057747 -27.73874719 26.08057747 -28.75 27.3125 C-28.6275646 29.22291447 -28.49809464 31.13320068 -28.32885742 33.04003906 C-27.5487457 41.97535466 -27.80080782 47.36207027 -32.5 55.25 C-34.75 57.3125 -34.75 57.3125 -38.0625 58.5 C-42.39663927 58.27962004 -43.91832376 57.53357958 -46.98046875 54.58203125 C-55.7607003 43.32085128 -59.05453049 30.40465031 -57.75 16.3125 C-56.19334841 10.36356662 -53.93231456 6.73285277 -48.75 3.3125 C-45.57803935 2.38055213 -42.3871328 1.97376729 -39.109375 1.58203125 C-38.1470697 1.46019974 -37.1847644 1.33836823 -36.19329834 1.21284485 C-24.15154429 -0.17095714 -12.10357573 -0.09837065 0 0 Z " fill="var(--skin)" transform="translate(415.75,545.6875)" />
  <path d="M0 0 C0.88042969 0.42410156 1.76085937 0.84820312 2.66796875 1.28515625 C13.7110758 7.28284979 20.08009759 15.59740265 25 27 C22.11380695 25.66202971 19.78113075 24.12267604 17.3125 22.125 C8.4247721 15.33045661 -0.9092542 12.883041 -12 14 C-20.84034119 16.23185954 -26.85638551 20.47482154 -32 28 C-32.33 28.99 -32.66 29.98 -33 31 C-31 30.66666667 -29 30.33333333 -27 30 C-25 29.66666667 -23 29.33333333 -21 29 C-20.84144531 29.72445312 -20.68289063 30.44890625 -20.51953125 31.1953125 C-18.78981829 38.3626314 -17.19947275 43.31700352 -10.75 47.4375 C-5.2836922 48.55560841 1.13067979 47.803548 6 45 C7.9049153 41.78031964 8.96936037 38.29396154 10.125 34.75 C10.47820312 33.67234375 10.83140625 32.5946875 11.1953125 31.484375 C11.59363281 30.25460937 11.59363281 30.25460937 12 29 C16.71493193 30.12609054 20.94977689 31.36986614 25.125 33.875 C29.06948539 40.44914231 27.62076699 47.70637119 25.92578125 54.83984375 C22.17288707 69.05284582 16.58919599 82.41738173 4 91 C-7.6751831 97.58946658 -20.28572324 99.98141257 -33.54296875 97.27734375 C-36.8332412 96.34213398 -39.87843377 95.40209345 -43 94 C-43.59306442 93.75596436 -44.18612885 93.51192871 -44.79716492 93.26049805 C-47.05568709 92.05742261 -48.40837394 91.02221446 -50 89 C-51.05895941 84.40864043 -50.93077533 79.82259982 -50.8671875 75.13671875 C-50.87405309 73.74402486 -50.88413479 72.35134354 -50.89724731 70.95869446 C-50.92384747 67.28005012 -50.90961641 63.60269328 -50.88592529 59.92407227 C-50.86808979 56.27287615 -50.88339458 52.62188859 -50.8984375 48.97070312 C-50.90406511 47.53329496 -50.90961959 46.09588651 -50.9151001 44.65847778 C-50.91782173 43.95201237 -50.92054337 43.24554695 -50.92334747 42.51767349 C-50.92965929 40.39619925 -50.93096088 38.27477264 -50.93109131 36.15328979 C-50.94080017 24.08586696 -51.3513953 12.049656 -52 0 C-50.75108386 -0.48198463 -49.50081192 -0.96045677 -48.25 -1.4375 C-47.55390625 -1.70433594 -46.8578125 -1.97117187 -46.140625 -2.24609375 C-32.8412809 -6.92998684 -12.7005052 -6.18643728 0 0 Z " fill="var(--skin)" transform="translate(363,353)" />
  <path d="M0 0 C0 3.06697765 -0.72538997 5.19296727 -1.77954102 8.0390625 C-4.88343893 16.48721838 -6.81388308 23.90385231 -3.6875 32.6875 C-0.90543879 36.87576669 3.44771143 39.50922938 7.5390625 42.30078125 C10 44 10 44 12 46 C10.99582031 46.60585938 9.99164063 47.21171875 8.95703125 47.8359375 C-0.15001789 53.39128225 -8.70996689 59.29011132 -17 66 C-17.74765625 66.56976562 -18.4953125 67.13953125 -19.265625 67.7265625 C-29.29074883 75.73876777 -35.15193128 87.38364711 -40 99 C-58.0326109 71.95108366 -58.3697476 34.34591006 -60 3 C-57.03569691 3.97981202 -54.08870124 4.96647705 -51.16796875 6.0703125 C-35.327276 11.67580011 -20.8647375 9.66620986 -5.8125 2.8125 C-3.87090211 1.88351661 -1.93187184 0.94904356 0 0 Z " fill="var(--skin)" transform="translate(373,452)" />
  <path d="M0 0 C4.47972172 3.35979129 8.26935095 6.84828822 11.546875 11.39453125 C11.546875 12.05453125 11.546875 12.71453125 11.546875 13.39453125 C4.80825273 11.95843142 -1.81942057 10.25444838 -8.453125 8.39453125 C-8.370625 9.38453125 -8.288125 10.37453125 -8.203125 11.39453125 C-8.22453641 16.68314954 -10.31557374 21.18609181 -13.984375 24.9765625 C-18.77037775 29.04701092 -21.7860199 29.76111493 -27.91796875 29.6640625 C-32.51368704 29.17545763 -35.0295743 27.10128169 -37.92578125 23.62890625 C-41.37387587 18.74970828 -41.9806774 15.30311808 -41.453125 9.39453125 C-42.71769531 9.82765625 -42.71769531 9.82765625 -44.0078125 10.26953125 C-45.10351562 10.64078125 -46.19921875 11.01203125 -47.328125 11.39453125 C-48.41867187 11.76578125 -49.50921875 12.13703125 -50.6328125 12.51953125 C-53.453125 13.39453125 -53.453125 13.39453125 -55.453125 13.39453125 C-54.67926322 6.72741438 -50.24934439 2.75407992 -45.453125 -1.60546875 C-31.39471361 -10.64301893 -13.86591049 -9.07466435 0 0 Z " fill="var(--ink)" transform="translate(534.453125,372.60546875)" />
  <path d="M0 0 C0.97364972 8.76270434 1.2091129 17.48303499 1.31640625 26.29296875 C1.33703128 27.73456847 1.35802896 29.17616291 1.37937927 30.61775208 C1.43402812 34.37407084 1.48368439 38.13043885 1.53222656 41.88684082 C1.58286491 45.7351509 1.63832777 49.5833913 1.69335938 53.43164062 C1.80023913 60.95436773 1.90183359 68.4771536 2 76 C0.87000204 75.0489867 -0.25753939 74.09505401 -1.3840332 73.13989258 C-2.01219437 72.60898514 -2.64035553 72.0780777 -3.28755188 71.53108215 C-13.01823402 62.83097989 -17.26087894 48.00928639 -18.2890625 35.4765625 C-18.57211488 23.81995096 -16.88137333 13.00456421 -9 4 C-6.13004221 1.44199414 -3.96371329 0 0 0 Z " fill="var(--halo)" transform="translate(301,358)" />
  <path d="M0 0 C4.20138021 0.40397887 5.37310704 1.21430758 8.25 4.3125 C13.5030307 13.35363171 15.22762552 20.81707203 14.25 31.3125 C11.40707572 40.77191621 4.52124786 47.51124398 -3.82421875 52.4375 C-6.59999294 53.69870369 -8.76493918 53.81001014 -11.75 53.3125 C-12.41 52.6525 -13.07 51.9925 -13.75 51.3125 C-13.5385367 46.71513128 -11.40784932 44.35926576 -8.4375 41 C-3.09310408 34.66999211 1.09441428 28.86971466 1.25 20.3125 C-0.01831366 16.69780606 -1.60195094 13.57158585 -3.5 10.25 C-4.98722811 6.75501393 -4.75846376 4.92616181 -3.75 1.3125 C-2.75 0.3125 -2.75 0.3125 0 0 Z " fill="var(--ink)" transform="translate(690.75,414.6875)" />
  <path d="M0 0 C13.30501225 2.33904042 26.80723886 4.90361943 39 11 C39 11.66 39 12.32 39 13 C45.27 13 51.54 13 58 13 C58 13.66 58 14.32 58 15 C43.85474157 15.22938257 32.22483102 14.33533955 19 9 C17.64110836 8.46751482 16.28172072 7.93629393 14.921875 7.40625 C4.1358915 3.17082862 4.1358915 3.17082862 0 1 C0 0.67 0 0.34 0 0 Z " fill="var(--skin)" transform="translate(546,342)" />
  <path d="M0 0 C0.33 0 0.66 0 1 0 C1.11063788 5.58106661 1.01913663 11.11584408 0.64160156 16.68652344 C-0.71920317 37.1173642 -0.48611516 57.55638065 1.5625 77.92578125 C2.0219563 82.63969517 2.07721859 87.26553532 2 92 C1.67 92 1.34 92 1 92 C0.10395632 85.95170514 -0.11269443 80.1105424 0 74 C-0.99 73.67 -1.98 73.34 -3 73 C-2.505 72.505 -2.505 72.505 -2 72 C-1.76572222 69.98405418 -1.58663876 67.961526 -1.4375 65.9375 C-1.35371094 64.83277344 -1.26992187 63.72804688 -1.18359375 62.58984375 C-1.12300781 61.73519531 -1.06242188 60.88054687 -1 60 C-1.66 59.67 -2.32 59.34 -3 59 C-2.56500516 39.26785587 -1.87830613 19.65796367 0 0 Z " fill="var(--halo)" transform="translate(133,437)" />
  <path d="M0 0 C0.69649658 0.01571045 1.39299316 0.0314209 2.1105957 0.04760742 C2.86791992 0.05727539 3.62524414 0.06694336 4.40551758 0.0769043 C5.19120117 0.10204102 5.97688477 0.12717773 6.78637695 0.15307617 C7.98230469 0.17337891 7.98230469 0.17337891 9.20239258 0.1940918 C11.16817663 0.22940528 13.13361278 0.2832117 15.09887695 0.34057617 C15.09887695 5.62057617 15.09887695 10.90057617 15.09887695 16.34057617 C14.10887695 16.34057617 13.11887695 16.34057617 12.09887695 16.34057617 C12.09887695 12.05057617 12.09887695 7.76057617 12.09887695 3.34057617 C6.48887695 3.34057617 0.87887695 3.34057617 -4.90112305 3.34057617 C-1.90112305 0.34057617 -1.90112305 0.34057617 0 0 Z " fill="var(--skin)" transform="translate(633.901123046875,375.659423828125)" />
  <path d="M0 0 C2.42204038 3.63306058 2.23302891 5.31819023 2.1953125 9.63671875 C2.18886719 10.93544922 2.18242188 12.23417969 2.17578125 13.57226562 C2.1590706 14.94401307 2.14214071 16.31575786 2.125 17.6875 C2.11496674 19.07095718 2.10584149 20.45442127 2.09765625 21.83789062 C2.07404967 25.22543452 2.04112037 28.61263072 2 32 C1.67 32 1.34 32 1 32 C0.67 34.31 0.34 36.62 0 39 C-0.33 39 -0.66 39 -1 39 C-1.02467917 33.76725612 -1.04285003 28.53454597 -1.05493164 23.30175781 C-1.05996711 21.52082733 -1.06679581 19.739901 -1.07543945 17.95898438 C-1.08753942 15.40233335 -1.09323609 12.84573688 -1.09765625 10.2890625 C-1.10281754 9.49005524 -1.10797882 8.69104797 -1.11329651 7.86782837 C-1.11387171 2.22774341 -1.11387171 2.22774341 0 0 Z " fill="var(--skin)" transform="translate(661,581)" />
  <path d="M0 0 C6.83693899 2.91485569 11.55709957 9.41995331 14.5 16.0625 C15.0177728 17.36809089 15.52503879 18.67823296 16 20 C12.96147295 18.59023295 10.4060405 16.91129772 7.75 14.875 C6.69039063 14.06675781 6.69039063 14.06675781 5.609375 13.2421875 C5.07828125 12.83226562 4.5471875 12.42234375 4 12 C4.268125 11.13375 4.53625 10.2675 4.8125 9.375 C5.01839588 5.66887413 4.82153412 5.29015261 2.5625 2.625 C1.716875 1.75875 0.87125 0.8925 0 0 Z " fill="var(--skin)" transform="translate(372,360)" />
  <path d="M0 0 C15.18 0 30.36 0 46 0 C46 0.33 46 0.66 46 1 C36.1 1 26.2 1 16 1 C16 1.66 16 2.32 16 3 C14.58456585 3.19658808 13.16755969 3.38187546 11.75 3.5625 C10.96109375 3.66691406 10.1721875 3.77132812 9.359375 3.87890625 C6.95914299 4.00209697 5.30386779 3.61196488 3 3 C1.41788427 2.93451508 -0.16670081 2.91421619 -1.75 2.9375 C-2.94882812 2.95103516 -2.94882812 2.95103516 -4.171875 2.96484375 C-5.07679688 2.98224609 -5.07679688 2.98224609 -6 3 C-6 2.67 -6 2.34 -6 2 C-4.02 1.67 -2.04 1.34 0 1 C0 0.67 0 0.34 0 0 Z " fill="var(--ink)" transform="translate(472,88)" />
  <path d="M0 0 C0.66 0.33 1.32 0.66 2 1 C1.84660156 1.56203125 1.69320313 2.1240625 1.53515625 2.703125 C0.98639581 5.05838878 0.68502401 7.34548104 0.4375 9.75 C0.31181641 10.94882812 0.31181641 10.94882812 0.18359375 12.171875 C0.12300781 12.77515625 0.06242187 13.3784375 0 14 C0.60328125 14.23074219 1.2065625 14.46148437 1.828125 14.69921875 C6.76617922 16.71426346 10.10752546 18.29972887 13 23 C14.28317892 26.84953676 14.06643637 29.94738135 14 34 C13.67 34 13.34 34 13 34 C12.90203125 33.33613281 12.8040625 32.67226563 12.703125 31.98828125 C11.50283708 24.68297116 11.50283708 24.68297116 7 19 C4.95740913 18.11244563 2.94320932 17.39481931 0.8046875 16.7734375 C-1 16 -1 16 -3 13 C-3.43762929 7.5733968 -3.36889008 4.49185344 0 0 Z " fill="var(--ink)" transform="translate(257,358)" />
  <path d="M0 0 C0.33 0 0.66 0 1 0 C0.16991714 7.63676234 -1.94434152 14.94848043 -5 22 C-5.66 22 -6.32 22 -7 22 C-8.37310707 23.29233607 -9.71034824 24.62437146 -11 26 C-9.71888271 22.67379639 -8.28132556 19.52940346 -6.625 16.375 C-3.93489606 11.07461716 -1.91278037 5.62079595 0 0 Z " fill="var(--ink)" transform="translate(388,409)" />
  <path d="M0 0 C0.33 0 0.66 0 1 0 C1.027193 1.58323688 1.04648306 3.16661062 1.0625 4.75 C1.07410156 5.63171875 1.08570313 6.5134375 1.09765625 7.421875 C1.00775819 9.79518377 0.60829744 11.72008204 0 14 C0 14.99 0 15.98 0 17 C-2.75806756 19.94432667 -6.06343813 22.64164556 -10.08984375 23.38671875 C-12 23.375 -12 23.375 -15 23 C-15.33 22.34 -15.66 21.68 -16 21 C-14.948125 21.103125 -13.89625 21.20625 -12.8125 21.3125 C-8.95077413 21.32868965 -8.95077413 21.32868965 -6.25 19 C-1.84883427 13.13177903 -0.64310354 7.20275961 0 0 Z " fill="var(--ink)" transform="translate(388,582)" />
  <path d="M0 0 C0.33 0 0.66 0 1 0 C1.02685938 2.14576637 1.04633088 4.29162645 1.0625 6.4375 C1.07410156 7.63246094 1.08570313 8.82742188 1.09765625 10.05859375 C1 13 1 13 0 14 C-0.23192865 15.51469448 -0.41215238 17.03754562 -0.5625 18.5625 C-0.64628906 19.38878906 -0.73007812 20.21507812 -0.81640625 21.06640625 C-0.87699219 21.70449219 -0.93757812 22.34257812 -1 23 C-1.66 23 -2.32 23 -3 23 C-2.88979143 19.91595192 -2.75924186 16.83308808 -2.625 13.75 C-2.5940625 12.87730469 -2.563125 12.00460937 -2.53125 11.10546875 C-2.49257813 10.26113281 -2.45390625 9.41679687 -2.4140625 8.546875 C-2.3826416 7.77182617 -2.3512207 6.99677734 -2.31884766 6.19824219 C-1.96973494 3.79134258 -1.19448896 2.10397705 0 0 Z " fill="var(--skin)" transform="translate(669,413)" />
  <path d="M0 0 C0.66 0.33 1.32 0.66 2 1 C1.54625 1.391875 1.0925 1.78375 0.625 2.1875 C-1.27642919 4.30832487 -2.06204028 6.33042235 -3 9 C-0.36 8.34 2.28 7.68 5 7 C2.63448058 9.73902249 0.45142779 10.93170092 -3 12 C-5.8125 12.125 -5.8125 12.125 -8 12 C-6.07776117 6.8403063 -4.19813062 3.74427866 0 0 Z " fill="var(--ink)" transform="translate(337,373)" />
  <path d="M0 0 C2 2 2 2 2.265625 4.25 C2.22882278 10.72719025 1.52944085 16.7047122 0 23 C-0.66 22.67 -1.32 22.34 -2 22 C-2 20.02 -2 18.04 -2 16 C-1.34 16 -0.68 16 0 16 C0 10.72 0 5.44 0 0 Z " fill="var(--skin)" transform="translate(498,564)" />
  <path d="M0 0 C0.33 0 0.66 0 1 0 C1 6.27 1 12.54 1 19 C-2 16 -2 16 -2.36328125 12.71484375 C-2.34652344 11.46832031 -2.32976563 10.22179687 -2.3125 8.9375 C-2.30863281 7.68839844 -2.30476562 6.43929687 -2.30078125 5.15234375 C-2 2 -2 2 0 0 Z " fill="var(--halo)" transform="translate(676,557)" />
  <path d="M0 0 C0.66 0.33 1.32 0.66 2 1 C1.67 5.29 1.34 9.58 1 14 C0.01 14.33 -0.98 14.66 -2 15 C-1.85930804 12.87465341 -1.71229079 10.74972471 -1.5625 8.625 C-1.48128906 7.44164062 -1.40007813 6.25828125 -1.31640625 5.0390625 C-1 2 -1 2 0 0 Z " fill="var(--skin)" transform="translate(664,458)" />
  <path d="M0 0 C3.96165466 0.62359379 7.74988194 0.64076766 11.75 0.59375 C12.85408203 0.58698242 12.85408203 0.58698242 13.98046875 0.58007812 C15.77868158 0.56840142 17.57685197 0.55047011 19.375 0.53125 C19.375 0.86125 19.375 1.19125 19.375 1.53125 C-1.62461871 3.34883678 -1.62461871 3.34883678 -6.625 0.53125 C-4.12687088 -0.333487 -2.63278051 -0.47013938 0 0 Z " fill="var(--skin)" transform="translate(325.625,349.46875)" />
  <path d="M0 0 C1.91595968 -0.08133791 3.83291932 -0.13934367 5.75 -0.1875 C7.35101562 -0.23970703 7.35101562 -0.23970703 8.984375 -0.29296875 C12 0 12 0 16 3 C10.06 3 4.12 3 -2 3 C-1.34 2.67 -0.68 2.34 0 2 C0 1.34 0 0.68 0 0 Z " fill="var(--ink)" transform="translate(604,357)" />
  <path d="M0 0 C2.70872518 0.39227838 5.40751693 0.74569498 8.125 1.0625 C8.87910156 1.15337891 9.63320313 1.24425781 10.41015625 1.33789062 C12.27304188 1.56190852 14.13647252 1.78138573 16 2 C16 2.33 16 2.66 16 3 C9.07 3 2.14 3 -5 3 C-5 2.34 -5 1.68 -5 1 C-6.32 0.67 -7.64 0.34 -9 0 C-2.25 -1.125 -2.25 -1.125 0 0 Z " fill="var(--ink)" transform="translate(529,89)" />
  <path d="M0 0 C3.96 0 7.92 0 12 0 C12.33 0.99 12.66 1.98 13 3 C8.38 3 3.76 3 -1 3 C-0.67 2.01 -0.34 1.02 0 0 Z " fill="var(--ink)" transform="translate(351,366)" />
  <path d="M0 0 C4.95 0 9.9 0 15 0 C15 0.99 15 1.98 15 3 C10.05 3 5.1 3 0 3 C0 2.01 0 1.02 0 0 Z " fill="var(--ink)" transform="translate(329,321)" />
  <path d="M0 0 C2.97 0 5.94 0 9 0 C9.33 0.99 9.66 1.98 10 3 C4.06 3 -1.88 3 -8 3 C-8 2.67 -8 2.34 -8 2 C-5.36 2 -2.72 2 0 2 C0 1.34 0 0.68 0 0 Z " fill="var(--skin)" transform="translate(398,546)" />
  <path d="M0 0 C1.29065057 3.8719517 0.22324098 6.44232601 -0.9375 10.1875 C-1.23043945 11.16879883 -1.23043945 11.16879883 -1.52929688 12.16992188 C-2.01182563 13.78227407 -2.50490205 15.39146289 -3 17 C-3.33 17 -3.66 17 -4 17 C-4.14285714 8.42857143 -4.14285714 8.42857143 -3 5 C-2.34 5 -1.68 5 -1 5 C-0.67 3.35 -0.34 1.7 0 0 Z " fill="var(--ink)" transform="translate(122,911)" />
  <path d="M0 0 C0.66 0.66 1.32 1.32 2 2 C0.4198632 4.15473199 -1.10646634 6.10646634 -3 8 C-3.66 7.67 -4.32 7.34 -5 7 C-5.28875 7.639375 -5.5775 8.27875 -5.875 8.9375 C-7 11 -7 11 -9 12 C-7.55575365 8.76138697 -5.74227753 6.38030837 -3.375 3.75 C-2.74335938 3.04359375 -2.11171875 2.3371875 -1.4609375 1.609375 C-0.97882813 1.07828125 -0.49671875 0.5471875 0 0 Z " fill="var(--ink)" transform="translate(353,519)" />
  <path d="M0 0 C0.66 0.33 1.32 0.66 2 1 C2 7.27 2 13.54 2 20 C1.67 20 1.34 20 1 20 C0.67 16.37 0.34 12.74 0 9 C-0.33 9 -0.66 9 -1 9 C-1.09765625 2.84765625 -1.09765625 2.84765625 -1 1 C-0.67 0.67 -0.34 0.34 0 0 Z " fill="var(--skin)" transform="translate(313,368)" />
  <path d="M0 0 C2.3393848 3.65528875 2.29928196 6.73523211 2 11 C1 13.9375 1 13.9375 0 16 C-0.33 16 -0.66 16 -1 16 C-1.02725341 14.2709226 -1.04650987 12.54171824 -1.0625 10.8125 C-1.07410156 9.84957031 -1.08570313 8.88664062 -1.09765625 7.89453125 C-1.00486622 5.14423487 -0.62111685 2.67520409 0 0 Z " fill="var(--halo)" transform="translate(724,340)" />
  <path d="M0 0 C2.875 0.25 2.875 0.25 6 1 C7.375 3.0625 7.375 3.0625 8 5 C5.6875 5.625 5.6875 5.625 3 6 C2.01 5.34 1.02 4.68 0 4 C0 2.68 0 1.36 0 0 Z " fill="var(--skin)" transform="translate(569,348)" />
  <path d="M0 0 C-0.33 1.98 -0.66 3.96 -1 6 C-1.99 6 -2.98 6 -4 6 C-4 5.34 -4 4.68 -4 4 C-6.31 3.67 -8.62 3.34 -11 3 C-11 2.67 -11 2.34 -11 2 C-9.5422647 1.664061 -8.08378894 1.33133376 -6.625 1 C-5.40683594 0.7215625 -5.40683594 0.7215625 -4.1640625 0.4375 C-2 0 -2 0 0 0 Z " fill="var(--skin)" transform="translate(599,179)" />
  <path d="M0 0 C0.99 0.33 1.98 0.66 3 1 C1.08959948 1.8680908 -0.82860737 2.71901783 -2.75 3.5625 C-3.81734375 4.03816406 -4.8846875 4.51382813 -5.984375 5.00390625 C-8.98369837 5.9946154 -10.13421241 6.16161779 -13 5 C-12.34 5 -11.68 5 -11 5 C-11 4.34 -11 3.68 -11 3 C-10.37351562 2.86722656 -9.74703125 2.73445312 -9.1015625 2.59765625 C-8.28429687 2.42105469 -7.46703125 2.24445312 -6.625 2.0625 C-5.81289063 1.88847656 -5.00078125 1.71445312 -4.1640625 1.53515625 C-1.970537 1.07669307 -1.970537 1.07669307 0 0 Z " fill="var(--ink)" transform="translate(517,686)" />
  <path d="M0 0 C4.29 0 8.58 0 13 0 C13.33 0.66 13.66 1.32 14 2 C8.96266834 3.5111995 4.11828973 2.64599773 -1 2 C-0.67 1.34 -0.34 0.68 0 0 Z " fill="var(--ink)" transform="translate(503,933)" />
  <path d="M0 0 C0 0.66 0 1.32 0 2 C0.66 2.33 1.32 2.66 2 3 C0.22773547 2.71715982 -1.542788 2.42339502 -3.3125 2.125 C-4.79169922 1.88136719 -4.79169922 1.88136719 -6.30078125 1.6328125 C-9 1 -9 1 -12 -1 C-7.2319721 -1.80966512 -4.39365476 -2.19682738 0 0 Z " fill="var(--ink)" transform="translate(575,98)" />
  <path d="M0 0 C0.99 0.33 1.98 0.66 3 1 C2.375 7.625 2.375 7.625 -1 11 C-0.67 7.37 -0.34 3.74 0 0 Z " fill="var(--ink)" transform="translate(467,483)" />
  <path d="M0 0 C1.15837573 3.47512718 0.77265943 5.13670286 0.0625 8.6875 C-0.13214844 9.68136719 -0.32679688 10.67523438 -0.52734375 11.69921875 C-0.68332031 12.45847656 -0.83929688 13.21773437 -1 14 C-1.66 13.67 -2.32 13.34 -3 13 C-2.88490339 11.58249437 -2.75746342 10.16598831 -2.625 8.75 C-2.55539062 7.96109375 -2.48578125 7.1721875 -2.4140625 6.359375 C-1.98492887 3.914123 -1.21399362 2.15163097 0 0 Z " fill="var(--ink)" transform="translate(308,197)" />
  <path d="M0 0 C0 3.33156142 -0.45664761 5.06028115 -2 8 C-4.27158744 9.59011121 -6.52870728 10.76435364 -9 12 C-7.55575365 8.76138697 -5.74227753 6.38030837 -3.375 3.75 C-2.74335938 3.04359375 -2.11171875 2.3371875 -1.4609375 1.609375 C-0.97882813 1.07828125 -0.49671875 0.5471875 0 0 Z " fill="var(--halo)" transform="translate(223,239)" />
  <path d="M0 0 C0.66 0.33 1.32 0.66 2 1 C1.71382813 1.55171875 1.42765625 2.1034375 1.1328125 2.671875 C-0.07739151 5.15905289 -1.1095306 7.67747753 -2.125 10.25 C-2.47820312 11.14203125 -2.83140625 12.0340625 -3.1953125 12.953125 C-3.46085937 13.62859375 -3.72640625 14.3040625 -4 15 C-5 13 -5 13 -4.2578125 10.21484375 C-3.88398438 9.13332031 -3.51015625 8.05179688 -3.125 6.9375 C-2.75632812 5.85339844 -2.38765625 4.76929688 -2.0078125 3.65234375 C-1 1 -1 1 0 0 Z " fill="var(--skin)" transform="translate(326,229)" />
  <path d="M0 0 C1 2 1 2 0.375 4.875 C-1.18787818 8.42699587 -2.83496039 9.83444658 -6 12 C-4.68139111 7.38486888 -2.78644563 3.90102388 0 0 Z " fill="var(--ink)" transform="translate(672,696)" />
  <path d="M0 0 C5.4389165 -0.21755666 9.87080814 -0.10428384 15 2 C15 2.33 15 2.66 15 3 C13.52093108 3.02689216 12.04172517 3.04634621 10.5625 3.0625 C9.32693359 3.07990234 9.32693359 3.07990234 8.06640625 3.09765625 C6 3 6 3 5 2 C3.33382885 1.95936168 1.66611905 1.957279 0 2 C0 1.34 0 0.68 0 0 Z " fill="var(--skin)" transform="translate(528,383)" />
  <path d="M0 0 C5.63689034 1.32632714 7.93185683 5.46631765 11 10 C8.15776803 8.63760782 6.03972359 7.44766831 4 5 C4 4.34 4 3.68 4 3 C2.68 2.34 1.36 1.68 0 1 C0 0.67 0 0.34 0 0 Z " fill="var(--ink)" transform="translate(542,360)" />
  <path d="M0 0 C2 2 2 2 2 5 C-3.61 4.67 -9.22 4.34 -15 4 C-15 3.67 -15 3.34 -15 3 C-10.05 3 -5.1 3 0 3 C0 2.01 0 1.02 0 0 Z " fill="var(--ink)" transform="translate(647,355)" />
  <path d="M0 0 C0 3.38023517 -0.87455622 5.83468937 -2 9 C-2.33 8.01 -2.66 7.02 -3 6 C-3.66 5.67 -4.32 5.34 -5 5 C-5.33 4.34 -5.66 3.68 -6 3 C-4.02 2.01 -2.04 1.02 0 0 Z " fill="var(--ink)" transform="translate(373,452)" />
  <path d="M0 0 C2.64 0.33 5.28 0.66 8 1 C8.33 1.99 8.66 2.98 9 4 C3.375 4.25 3.375 4.25 0 2 C0 1.34 0 0.68 0 0 Z " fill="var(--skin)" transform="translate(501,180)" />
  <path d="M0 0 C2.97 0.495 2.97 0.495 6 1 C5.01 2.98 4.02 4.96 3 7 C1.68 6.01 0.36 5.02 -1 4 C-0.67 2.68 -0.34 1.36 0 0 Z " fill="var(--halo)" transform="translate(320,160)" />
  <path d="M0 0 C0.75 1.6875 0.75 1.6875 1 4 C-0.8125 6.75 -0.8125 6.75 -3 9 C-3.66 9 -4.32 9 -5 9 C-3.7508258 5.54074837 -2.32472205 2.85306797 0 0 Z " fill="var(--ink)" transform="translate(662,713)" />
  <path d="M0 0 C0.66 0.33 1.32 0.66 2 1 C1.34 2.32 0.68 3.64 0 5 C-0.66 5 -1.32 5 -2 5 C-3.37310707 6.29233607 -4.71034824 7.62437146 -6 9 C-4.68775452 5.06326356 -3.08089673 2.77280706 0 0 Z " fill="var(--ink)" transform="translate(383,426)" />
  <path d="M0 0 C0.66 0.33 1.32 0.66 2 1 C-0.35277269 3.72426311 -2.62496331 4.8141763 -6 6 C-6.66 5.34 -7.32 4.68 -8 4 C-6.71349294 3.30289269 -5.42059335 2.61757124 -4.125 1.9375 C-3.40570313 1.55464844 -2.68640625 1.17179688 -1.9453125 0.77734375 C-1.30335938 0.52082031 -0.66140625 0.26429688 0 0 Z " fill="var(--ink)" transform="translate(261,769)" />
  <path d="M0 0 C3.78786597 0.5260925 6.17152224 1.38103911 9 4 C9 4.66 9 5.32 9 6 C5.06326356 4.68775452 2.77280706 3.08089673 0 0 Z " fill="var(--ink)" transform="translate(848,770)" />
  <path d="M0 0 C0.66 1.32 1.32 2.64 2 4 C-0.97 6.475 -0.97 6.475 -4 9 C-4 5.00095031 -2.27413033 3.19799578 0 0 Z " fill="var(--ink)" transform="translate(469,489)" />
  <path d="M0 0 C0 0.66 0 1.32 0 2 C-5.41538462 3.23076923 -5.41538462 3.23076923 -8.375 2.0625 C-8.91125 1.711875 -9.4475 1.36125 -10 1 C-8.71073008 0.63720544 -7.41846728 0.28503302 -6.125 -0.0625 C-5.40570312 -0.25972656 -4.68640625 -0.45695312 -3.9453125 -0.66015625 C-2 -1 -2 -1 0 0 Z " fill="var(--skin)" transform="translate(531,461)" />
  <path d="M0 0 C0.33 0.66 0.66 1.32 1 2 C0.67 2.66 0.34 3.32 0 4 C-0.66 3.67 -1.32 3.34 -2 3 C-1.34 2.01 -0.68 1.02 0 0 Z M-3 4 C-3 7.51716303 -3.82445585 8.37121748 -6 11 C-6.99 10.67 -7.98 10.34 -9 10 C-7.02 8.02 -5.04 6.04 -3 4 Z " fill="var(--skin)" transform="translate(701,453)" />
  <path d="M0 0 C0.33 0 0.66 0 1 0 C1.33 2.64 1.66 5.28 2 8 C1.01 8 0.02 8 -1 8 C-1.625 5.6875 -1.625 5.6875 -2 3 C-1.34 2.01 -0.68 1.02 0 0 Z " fill="var(--skin)" transform="translate(315,435)" />
  <path d="M0 0 C-1.7902061 0.67057887 -3.58221489 1.3363469 -5.375 2 C-6.37273437 2.37125 -7.37046875 2.7425 -8.3984375 3.125 C-11 4 -11 4 -13 4 C-12.67 2.68 -12.34 1.36 -12 0 C-11.67 0.66 -11.34 1.32 -11 2 C-10.45730469 1.77183594 -9.91460937 1.54367187 -9.35546875 1.30859375 C-8.64003906 1.02113281 -7.92460937 0.73367188 -7.1875 0.4375 C-6.47980469 0.14746094 -5.77210938 -0.14257812 -5.04296875 -0.44140625 C-3 -1 -3 -1 0 0 Z " fill="var(--ink)" transform="translate(492,382)" />
  <path d="M0 0 C0.99 0 1.98 0 3 0 C3 4.29 3 8.58 3 13 C2.67 13 2.34 13 2 13 C1.92652344 11.82630859 1.92652344 11.82630859 1.8515625 10.62890625 C1.77679688 9.61699219 1.70203125 8.60507812 1.625 7.5625 C1.55539062 6.55316406 1.48578125 5.54382813 1.4140625 4.50390625 C1.27742188 3.67761719 1.14078125 2.85132813 1 2 C0.34 1.67 -0.32 1.34 -1 1 C-0.67 0.67 -0.34 0.34 0 0 Z " fill="var(--halo)" transform="translate(298,358)" />
  <path d="M0 0 C1.4370809 -0.05422947 2.87475462 -0.09289723 4.3125 -0.125 C5.11300781 -0.14820313 5.91351563 -0.17140625 6.73828125 -0.1953125 C9 0 9 0 12 2 C10.56589632 2.24954005 9.12739928 2.47392642 7.6875 2.6875 C6.88699219 2.81511719 6.08648437 2.94273437 5.26171875 3.07421875 C3 3 3 3 1.20703125 1.51953125 C0.80871094 1.01808594 0.41039062 0.51664062 0 0 Z " fill="var(--ink)" transform="translate(426,485)" />
  <path d="M0 0 C0.33 0 0.66 0 1 0 C1 5.61 1 11.22 1 17 C0.67 17 0.34 17 0 17 C-1.33257403 5.47835991 -1.33257403 5.47835991 0 0 Z " fill="var(--halo)" transform="translate(129,472)" />
  <path d="M0 0 C0.33 0.99 0.66 1.98 1 3 C-0.21484375 5.26171875 -0.21484375 5.26171875 -1.9375 7.6875 C-2.50339844 8.49574219 -3.06929687 9.30398438 -3.65234375 10.13671875 C-4.09707031 10.75160156 -4.54179688 11.36648438 -5 12 C-5.33 11.01 -5.66 10.02 -6 9 C-4.78515625 6.73828125 -4.78515625 6.73828125 -3.0625 4.3125 C-2.49660156 3.50425781 -1.93070313 2.69601562 -1.34765625 1.86328125 C-0.90292969 1.24839844 -0.45820312 0.63351562 0 0 Z " fill="var(--skin)" transform="translate(563,432)" />
  <path d="M0 0 C2 3 2 3 2 6 C2.66 6 3.32 6 4 6 C3.67 7.98 3.34 9.96 3 12 C0.50494038 9.50494038 0.64051624 8.32671112 0.375 4.875 C0.30023437 3.96492188 0.22546875 3.05484375 0.1484375 2.1171875 C0.09945312 1.41851562 0.05046875 0.71984375 0 0 Z " fill="var(--ink)" transform="translate(647,347)" />
  <path d="M0 0 C1.45945288 0.08708669 2.91765868 0.19526907 4.375 0.3125 C5.59316406 0.39951172 5.59316406 0.39951172 6.8359375 0.48828125 C9 1 9 1 11 4 C9.53984709 3.71758359 8.08190207 3.42373386 6.625 3.125 C5.81289063 2.96257812 5.00078125 2.80015625 4.1640625 2.6328125 C2 2 2 2 0 0 Z " fill="var(--ink)" transform="translate(578,101)" />
  <path d="M0 0 C0 4.38968456 -2.12805101 5.76905739 -5 9 C-5.33 8.01 -5.66 7.02 -6 6 C-4.02 4.02 -2.04 2.04 0 0 Z " fill="var(--ink)" transform="translate(592,636)" />
  <path d="M0 0 C0.6875 2.0625 0.6875 2.0625 1 4 C-3.75 3.125 -3.75 3.125 -6 2 C-6 1.34 -6 0.68 -6 0 C-3 -1 -3 -1 0 0 Z " fill="var(--skin)" transform="translate(462,500)" />
  <path d="M0 0 C2.6855594 2.6855594 3.06049974 5.37621328 4 9 C2.68 8.67 1.36 8.34 0 8 C0 5.36 0 2.72 0 0 Z " fill="var(--skin)" transform="translate(632,304)" />
  <path d="M0 0 C3.77545388 1.09068668 6.47043472 1.9083091 9 5 C3.48387097 4.38709677 3.48387097 4.38709677 1.125 2.5 C0 1 0 1 0 0 Z " fill="var(--ink)" transform="translate(820,753)" />
  <path d="M0 0 C0.33 0.66 0.66 1.32 1 2 C-0.98 4.97 -0.98 4.97 -3 8 C-3.75 6.25 -3.75 6.25 -4 4 C-2.0625 1.75 -2.0625 1.75 0 0 Z " fill="var(--ink)" transform="translate(147,853)" />
  <path d="M0 0 C0.66 0.33 1.32 0.66 2 1 C0.25 3.0625 0.25 3.0625 -2 5 C-4.25 4.75 -4.25 4.75 -6 4 C-4.02 2.68 -2.04 1.36 0 0 Z " fill="var(--ink)" transform="translate(200,799)" />
  <path d="M0 0 C-0.33 0.99 -0.66 1.98 -1 3 C-4.0625 4.1875 -4.0625 4.1875 -7 5 C-7.33 4.34 -7.66 3.68 -8 3 C-2.25 0 -2.25 0 0 0 Z " fill="var(--ink)" transform="translate(219,790)" />
  <path d="M0 0 C3.36525621 0.46417327 5.40608501 1.86928411 8 4 C4.85375007 4.26218749 3.38162983 4.24754367 0.6875 2.5 C0.130625 2.005 -0.42625 1.51 -1 1 C-0.67 0.67 -0.34 0.34 0 0 Z " fill="var(--ink)" transform="translate(801,743)" />
  <path d="M0 0 C0.66 0.33 1.32 0.66 2 1 C0.515 4.465 0.515 4.465 -1 8 C-1.68707555 5.50935112 -2 3.62113708 -2 1 C-1.34 0.67 -0.68 0.34 0 0 Z " fill="var(--skin)" transform="translate(334,543)" />
  <path d="M0 0 C0.33 0 0.66 0 1 0 C1 2.64 1 5.28 1 8 C0.67 8 0.34 8 0 8 C0 5.36 0 2.72 0 0 Z " fill="var(--halo)" transform="translate(130,501)" />
  <path d="M0 0 C0.99 0.495 0.99 0.495 2 1 C2 1.99 2 2.98 2 4 C1.34 4 0.68 4 0 4 C0 2.68 0 1.36 0 0 Z " fill="var(--halo)" transform="translate(176,654)" />
  <path d="M0 0 C0.66 0.33 1.32 0.66 2 1 C1.01 1.99 0.02 2.98 -1 4 C-0.67 2.68 -0.34 1.36 0 0 Z " fill="var(--halo)" transform="translate(193,272)" />
  <path d="M0 0 C0.33 0 0.66 0 1 0 C1 1.98 1 3.96 1 6 C0.67 6 0.34 6 0 6 C0 4.02 0 2.04 0 0 Z " fill="var(--halo)" transform="translate(130,452)" />
  <path d="M0 0 C1.32 0.33 2.64 0.66 4 1 C2.68 1.33 1.36 1.66 0 2 C0 1.34 0 0.68 0 0 Z " fill="var(--ink)" transform="translate(403,104)" />
  <path d="M0 0 C1.65 0 3.3 0 5 0 C5 0.33 5 0.66 5 1 C3.35 1 1.7 1 0 1 C0 0.67 0 0.34 0 0 Z " fill="var(--ink)" transform="translate(936,934)" />
  <path d="M0 0 C1.32 0.33 2.64 0.66 4 1 C3.01 1.495 3.01 1.495 2 2 C1.34 1.34 0.68 0.68 0 0 Z " fill="var(--halo)" transform="translate(236,734)" />
  <path d="M0 0 C0.99 0.33 1.98 0.66 3 1 C2.34 1.66 1.68 2.32 1 3 C0.67 2.01 0.34 1.02 0 0 Z " fill="var(--halo)" transform="translate(234,731)" />
  <path d="M0 0 C0.66 0.66 1.32 1.32 2 2 C1.01 2 0.02 2 -1 2 C-0.67 1.34 -0.34 0.68 0 0 Z " fill="var(--halo)" transform="translate(228,724)" />
  <path d="M0 0 C0.99 0.99 1.98 1.98 3 3 C2.01 2.67 1.02 2.34 0 2 C0 1.34 0 0.68 0 0 Z " fill="var(--halo)" transform="translate(194,683)" />
  <path d="M0 0 C0.66 0.99 1.32 1.98 2 3 C1.01 2.67 0.02 2.34 -1 2 C-0.67 1.34 -0.34 0.68 0 0 Z " fill="var(--halo)" transform="translate(170,643)" />
  <path d="M0 0 C0.66 1.32 1.32 2.64 2 4 C1.34 3.67 0.68 3.34 0 3 C0 2.01 0 1.02 0 0 Z " fill="var(--halo)" transform="translate(144,581)" />
  <path d="M0 0 C0.33 0 0.66 0 1 0 C1 1.65 1 3.3 1 5 C0.67 5 0.34 5 0 5 C0 3.35 0 1.7 0 0 Z " fill="var(--halo)" transform="translate(129,465)" />
  <path d="M0 0 C0.66 0.66 1.32 1.32 2 2 C1.01 2 0.02 2 -1 2 C-0.67 1.34 -0.34 0.68 0 0 Z " fill="var(--halo)" transform="translate(292,176)" />
  <path d="M0 0 C1.32 0.33 2.64 0.66 4 1 C3.01 1.495 3.01 1.495 2 2 C1.34 1.34 0.68 0.68 0 0 Z " fill="var(--halo)" transform="translate(682,160)" />
  <path d="M0 0 C0.99 1.485 0.99 1.485 2 3 C1.34 3 0.68 3 0 3 C0 2.01 0 1.02 0 0 Z " fill="var(--halo)" transform="translate(208,701)" />
  <path d="M0 0 C0.66 0 1.32 0 2 0 C2 0.66 2 1.32 2 2 C1.34 2 0.68 2 0 2 C0 1.34 0 0.68 0 0 Z " fill="var(--halo)" transform="translate(821,670)" />
  <path d="M0 0 C1 4 1 4 1 4 Z " fill="var(--halo)" transform="translate(863,581)" />
  <path d="M0 0 C0.33 0.99 0.66 1.98 1 3 C0.34 2.67 -0.32 2.34 -1 2 C-0.67 1.34 -0.34 0.68 0 0 Z " fill="var(--halo)" transform="translate(138,558)" />
  <path d="M0 0 C1 4 1 4 1 4 Z " fill="var(--halo)" transform="translate(131,516)" />
  <path d="M0 0 C0.99 0 1.98 0 3 0 C2.67 0.66 2.34 1.32 2 2 C1.34 1.34 0.68 0.68 0 0 Z " fill="var(--ink)" transform="translate(628,120)" />
  <path d="M0 0 C3 1 3 1 3 1 Z " fill="var(--ink)" transform="translate(770,934)" />
  <path d="M0 0 C3 1 3 1 3 1 Z " fill="var(--ink)" transform="translate(224,784)" />
  <path d="M0 0 C3 1 3 1 3 1 Z " fill="var(--ink)" transform="translate(241,776)" />
  <path d="M0 0 C3 1 3 1 3 1 Z " fill="var(--halo)" transform="translate(224,725)" />
  <path d="M0 0 C0.66 0.66 1.32 1.32 2 2 C1.34 2 0.68 2 0 2 C0 1.34 0 0.68 0 0 Z " fill="var(--halo)" transform="translate(224,720)" />
  <path d="M0 0 C0.66 0 1.32 0 2 0 C1.67 0.66 1.34 1.32 1 2 C0.67 1.34 0.34 0.68 0 0 Z " fill="var(--halo)" transform="translate(130,444)" />
  <path d="M0 0 C0.66 0 1.32 0 2 0 C1.67 0.66 1.34 1.32 1 2 C0.67 1.34 0.34 0.68 0 0 Z " fill="var(--halo)" transform="translate(145,368)" />
  <path d="M0 0 C3 1 3 1 3 1 Z " fill="var(--halo)" transform="translate(242,216)" />
  <path d="M0 0 C0.66 0.66 1.32 1.32 2 2 C1.34 2 0.68 2 0 2 C0 1.34 0 0.68 0 0 Z " fill="var(--halo)" transform="translate(756,209)" />
  <path d="M0 0 C0.99 0.495 0.99 0.495 2 1 C1.01 1.495 1.01 1.495 0 2 C0 1.34 0 0.68 0 0 Z " fill="var(--ink)" transform="translate(330,154)" />
  <path d="M0 0 C0.99 0.495 0.99 0.495 2 1 C1.01 1.495 1.01 1.495 0 2 C0 1.34 0 0.68 0 0 Z " fill="var(--ink)" transform="translate(338,146)" />
  <path d="M0 0 C2 1 2 1 2 1 Z " fill="var(--ink)" transform="translate(867,934)" />
  <path d="M0 0 C2 1 2 1 2 1 Z " fill="var(--ink)" transform="translate(427,934)" />
  <path d="M0 0 C2 1 2 1 2 1 Z " fill="var(--ink)" transform="translate(395,934)" />
  <path d="M0 0 C2 1 2 1 2 1 Z " fill="var(--ink)" transform="translate(155,934)" />
  <path d="M0 0 C2 1 2 1 2 1 Z " fill="var(--ink)" transform="translate(123,934)" />
  <path d="M0 0 C2 1 2 1 2 1 Z " fill="var(--ink)" transform="translate(129,880)" />
  <path d="M0 0 C2 1 2 1 2 1 Z " fill="var(--ink)" transform="translate(144,851)" />
  <path d="M0 0 C2 1 2 1 2 1 Z " fill="var(--ink)" transform="translate(209,792)" />
  <path d="M0 0 C2 1 2 1 2 1 Z " fill="var(--ink)" transform="translate(822,752)" />
  <path d="M0 0 C2 1 2 1 2 1 Z " fill="var(--halo)" transform="translate(255,751)" />
  <path d="M0 0 C2 1 2 1 2 1 Z " fill="var(--ink)" transform="translate(792,736)" />
  <path d="M0 0 C2 1 2 1 2 1 Z " fill="var(--halo)" transform="translate(222,719)" />
  <path d="M0 0 C2 1 2 1 2 1 Z " fill="var(--halo)" transform="translate(203,695)" />
  <path d="M0 0 C2 1 2 1 2 1 Z " fill="var(--halo)" transform="translate(161,328)" />
  <path d="M0 0 C2 1 2 1 2 1 Z " fill="var(--halo)" transform="translate(168,313)" />
  <path d="M0 0 C2 1 2 1 2 1 Z " fill="var(--halo)" transform="translate(822,286)" />
  <path d="M0 0 C2 1 2 1 2 1 Z " fill="var(--halo)" transform="translate(209,248)" />
  <path d="M0 0 C2 1 2 1 2 1 Z " fill="var(--halo)" transform="translate(279,186)" />
  <path d="M0 0 C2 1 2 1 2 1 Z " fill="var(--ink)" transform="translate(328,156)" />
  <path d="M0 0 C2 1 2 1 2 1 Z " fill="var(--ink)" transform="translate(360,128)" />
  <path d="M0 0 C2 1 2 1 2 1 Z " fill="var(--ink)" transform="translate(371,121)" />
  <path d="M0 0 C2 1 2 1 2 1 Z " fill="var(--ink)" transform="translate(373,120)" />
  <path d="M0 0 C2 1 2 1 2 1 Z " fill="var(--ink)" transform="translate(368,120)" />
  <path d="M0 0 C2 1 2 1 2 1 Z " fill="var(--ink)" transform="translate(595,104)" />
  <path d="M0 0 C2 1 2 1 2 1 Z " fill="var(--ink)" transform="translate(400,104)" />
  <path d="M0 0 C2 1 2 1 2 1 Z " fill="var(--ink)" transform="translate(582,99)" />
  <path d="M0 0 C2 1 2 1 2 1 Z " fill="var(--ink)" transform="translate(548,90)" />
  <path d="M0 0 C2 1 2 1 2 1 Z " fill="var(--ink)" transform="translate(542,89)" />
  <path d="M0 0 C2 1 2 1 2 1 Z " fill="var(--ink)" transform="translate(534,88)" />
  <path d="M0 0 C2 1 2 1 2 1 Z " fill="var(--ink)" transform="translate(529,88)" />
  <path d="M0 0 C2 1 2 1 2 1 Z " fill="var(--ink)" transform="translate(469,88)" />
</svg>